SplineFontDB: 3.2
FontName: Wallon
FullName: Wallon
FamilyName: Wallon
Weight: Regular
Copyright: Copyright (c) 2019, Seok Jeong-il
UComments: "2019-6-3: Created with FontForge (http://fontforge.org)"
Version: 1.000
ItalicAngle: 0
UnderlinePosition: -100
UnderlineWidth: 50
Ascent: 800
Descent: 200
InvalidEm: 0
LayerCount: 2
Layer: 0 0 "+tLe6dAAA" 1
Layer: 1 0 "+xV66dAAA" 0
XUID: [1021 389 -1681682962 23184]
StyleMap: 0x0000
FSType: 0
OS2Version: 0
OS2_WeightWidthSlopeOnly: 0
OS2_UseTypoMetrics: 1
CreationTime: 1559556429
ModificationTime: 1614904179
OS2TypoAscent: 0
OS2TypoAOffset: 1
OS2TypoDescent: 0
OS2TypoDOffset: 1
OS2TypoLinegap: 90
OS2WinAscent: 0
OS2WinAOffset: 1
OS2WinDescent: 0
OS2WinDOffset: 1
HheadAscent: 0
HheadAOffset: 1
HheadDescent: 0
HheadDOffset: 1
Lookup: 4 0 1 "LatinLigature" { "LatinLigature"  } ['liga' ('DFLT' <'dflt' > 'latn' <'dflt' > ) ]
Lookup: 1 0 0 "'sups' +xxfMqMeQ lookup 0" { "'sups' +xxfMqMeQ lookup 0 subtable" ("superior") } ['sups' ('DFLT' <'dflt' > ) ]
Lookup: 258 0 0 "Latin" { "Latin" [150,0,2] } ['kern' ('DFLT' <'dflt' > 'latn' <'dflt' > ) ]
MarkAttachClasses: 1
DEI: 91125
KernClass2: 26 23 "Latin"
 1 A
 3 B D
 3 C G
 3 F P
 3 K X
 1 L
 3 O Q
 3 V W
 1 Z
 3 T Y
 1 E
 7 H I M N
 1 U
 1 a
 9 b c e o p
 3 d l
 1 f
 5 h m n
 1 i
 3 k x
 1 s
 1 u
 5 v w y
 1 g
 1 R
 13 a c d e o q s
 1 f
 1 g
 1 i
 1 j
 7 m n r u
 1 p
 1 t
 3 v w
 3 x z
 1 y
 1 A
 23 B D E F H I K L M N P R
 7 C G O Q
 1 J
 1 S
 1 T
 1 U
 3 V W
 1 X
 1 Y
 1 Z

StartChar: h
Encoding: 104 104 0
Width: 610
VWidth: 0
Flags: W
HStem: 0 20<10 280 330 600> 440 30<270.467 358.915> 695 10<20 44.0411> 720 20G<95 195>
VStem: 105 90<0 681.284> 425 90<0 378.462>
LayerCount: 2
Fore
SplineSet
330 20 m 1
 425 20 l 1
 515 20 l 1
 600 20 l 1
 600 0 l 1
 330 0 l 1
 330 20 l 1
10 20 m 1
 105 20 l 1
 195 20 l 1
 280 20 l 1
 280 0 l 1
 10 0 l 1
 10 20 l 1
195 0 m 1
 105 0 l 1
 105 650 l 18
 105 685 54 695 20 695 c 1
 20 705 l 1
 195 740 l 1
 195 0 l 1
140 305 m 1
 171 390 245 470 335 470 c 0
 445 470 515 420 515 270 c 10
 515 0 l 25
 425 0 l 25
 425 270 l 2
 425 390 375 440 295 440 c 0
 215 440 171 350 140 265 c 9
 140 305 l 1
EndSplineSet
Validated: 5
EndChar

StartChar: n
Encoding: 110 110 1
Width: 610
VWidth: 0
Flags: W
HStem: 0 20<10 290 330 610> 425 10<20 44.0411> 435 35<263.391 365.455>
VStem: 105 90<0 411.284> 425 90<0 378.081>
LayerCount: 2
Fore
SplineSet
330 20 m 1x98
 425 20 l 1
 515 20 l 1
 610 20 l 1
 610 0 l 1
 330 0 l 1
 330 20 l 1x98
10 20 m 1
 105 20 l 1
 195 20 l 1
 290 20 l 1
 290 0 l 1
 10 0 l 1
 10 20 l 1
195 0 m 1
 105 0 l 1
 105 380 l 18
 105 415 54 425 20 425 c 1
 20 435 l 1xd8
 195 470 l 1xb8
 195 0 l 1
140 305 m 1
 171 390 245 470 335 470 c 0
 445 470 515 420 515 270 c 10
 515 0 l 25
 425 0 l 25
 425 270 l 2
 425 390 375 435 295 435 c 0xb8
 215 435 171 345 140 260 c 9
 140 305 l 1
EndSplineSet
Validated: 5
EndChar

StartChar: a
Encoding: 97 97 2
Width: 490
VWidth: 0
Flags: W
HStem: -20 30<365 443.708> -20 20<181.734 240.71> 250 10<258.925 350> 455 15<188.05 260.581>
VStem: 40 95<33.7494 174.181> 60 90<356.58 431.183> 310 90<12.6294 250 260 418.303> 310 40<91.2564 102 250 260>
LayerCount: 2
Fore
SplineSet
350 260 m 1x79
 350 250 l 1x79
 310 250 l 18x72
 208 250 135 209 135 109 c 0
 135 29 180 0 215 0 c 0
 265 0 299 46 352 122 c 9
 352 102 l 17
 297 24 260 -20 190 -20 c 0
 110 -20 40 20 40 100 c 0
 40 210 150 260 300 260 c 10
 350 260 l 1x79
225 455 m 0
 175 455 156 429 150 395 c 0
 144 361 125 350 105 350 c 0
 85 350 60 360 60 390 c 0
 60 445 145 470 235 470 c 4
 325 470 400 445 400 345 c 10
 400 90 l 18
 400 30 410 10 430 10 c 0
 445 10 456 22 470 60 c 9
 480 55 l 17
 456 -11 430 -20 390 -20 c 0
 340 -20 310 20 310 70 c 10
 310 350 l 18xb6
 310 420 275 455 225 455 c 0
EndSplineSet
Validated: 5
EndChar

StartChar: m
Encoding: 109 109 3
Width: 880
VWidth: 0
Flags: W
HStem: 0 20<10 280 320 580 610 880> 425 10<20 44.0411> 440 30<261.414 345.355 551.414 635.355>
VStem: 105 90<0 411.284> 405 90<0 390> 695 90<0 386.001>
LayerCount: 2
Fore
SplineSet
610 20 m 1
 695 20 l 1
 785 20 l 1
 880 20 l 1
 880 0 l 1
 610 0 l 1
 610 20 l 1
320 20 m 1
 405 20 l 1
 495 20 l 1
 580 20 l 1
 580 0 l 1
 320 0 l 1
 320 20 l 1
10 20 m 1
 105 20 l 1
 195 20 l 1
 280 20 l 1
 280 0 l 1
 10 0 l 1
 10 20 l 1
195 0 m 1
 105 0 l 1
 105 380 l 18
 105 415 54 425 20 425 c 1
 20 435 l 1
 195 470 l 1
 195 0 l 1
430 305 m 1
 461 390 525 470 615 470 c 0
 725 470 785 420 785 270 c 10
 785 0 l 25
 695 0 l 25
 695 270 l 2
 695 390 655 440 575 440 c 0
 495 440 461 350 430 265 c 9
 430 305 l 1
140 305 m 1
 171 390 235 470 325 470 c 0
 435 470 495 420 495 270 c 10
 495 0 l 25
 405 0 l 25
 405 270 l 2
 405 390 365 440 285 440 c 0
 205 440 171 350 140 265 c 9
 140 305 l 1
EndSplineSet
Validated: 5
EndChar

StartChar: b
Encoding: 98 98 4
Width: 600
VWidth: 0
Flags: W
HStem: -20 20<265.778 357.073> 450 20<265.778 357.073> 695 10<10 34.0411> 720 20G<85 185>
VStem: 95 90<36.7449 681.284> 114 25<65 385> 454 106<118.217 339.515>
LayerCount: 2
Fore
SplineSet
185 45 m 1xfa
 144 32 117 10 100 -20 c 1
 95 -20 l 1
 95 650 l 18
 95 685 44 695 10 695 c 1
 10 705 l 1
 185 740 l 1
 185 45 l 1xfa
114 225 m 0xf6
 114 395 221 470 331 470 c 0
 441 470 560 400 560 230 c 0
 560 60 441 -20 331 -20 c 0
 221 -20 114 55 114 225 c 0xf6
139 225 m 0
 139 75 211 0 311 0 c 0
 391 0 454 70 454 220 c 0
 454 370 391 450 311 450 c 0
 211 450 139 375 139 225 c 0
EndSplineSet
Validated: 5
EndChar

StartChar: d
Encoding: 100 100 5
Width: 590
VWidth: 0
Flags: W
HStem: -20 20<234.166 325.481> 15 10<555.959 580> 450 20<234.166 325.481> 695 10<320 344.041> 720 20G<395 495>
VStem: 40 100<105.221 337.203> 405 90<38.716 681.284> 455 25<65 385>
LayerCount: 2
Fore
SplineSet
495 70 m 18xfe
 495 35 546 25 580 25 c 1
 580 15 l 1
 405 -20 l 1
 405 650 l 18
 405 685 354 695 320 695 c 1
 320 705 l 1
 495 740 l 1
 495 70 l 18xfe
455 225 m 0xfd
 455 375 380 450 280 450 c 0
 200 450 140 380 140 230 c 0
 140 80 200 0 280 0 c 0
 380 0 455 75 455 225 c 0xfd
480 225 m 0
 480 55 370 -20 260 -20 c 0
 150 -20 40 50 40 220 c 0
 40 390 150 470 260 470 c 4
 370 470 480 395 480 225 c 0
EndSplineSet
Validated: 5
EndChar

StartChar: e
Encoding: 101 101 6
Width: 510
VWidth: 0
Flags: W
HStem: -20 20<231.458 329.329> 265 25<110 370> 450 20<219.648 305.177>
VStem: 40 100<110.485 331.783> 110 30<265 290> 370 100<290 356.832>
LayerCount: 2
Fore
SplineSet
460 145 m 1xf4
 470 140 l 1
 438 51 379 -20 275 -20 c 0
 165 -20 40 50 40 220 c 0xf4
 40 390 155 470 265 470 c 0
 375 470 470 385 470 265 c 1
 110 265 l 1
 110 290 l 1xec
 370 290 l 1
 367 370 340 450 265 450 c 0
 185 450 140 380 140 230 c 0
 140 80 195 0 275 0 c 0
 355 0 429 60 460 145 c 1xf4
EndSplineSet
Validated: 5
EndChar

StartChar: f
Encoding: 102 102 7
Width: 370
VWidth: 0
Flags: W
HStem: 0 20<35 295> 420 30<22.3228 350> 420 20<20 109.994> 745 15<274.773 348.009>
VStem: 110 90<0 656.606> 390 90<623.02 715.118>
LayerCount: 2
Fore
SplineSet
35 20 m 1x9c
 110 20 l 1
 200 20 l 1
 295 20 l 1
 295 0 l 1
 35 0 l 1
 35 20 l 1x9c
110 0 m 1
 110 540 l 2
 110 688 185 760 295 760 c 0
 390 760 480 735 480 665 c 0
 480 635 455 615 435 615 c 0
 415 615 390 625 390 665 c 0
 390 725 355 745 305 745 c 0
 235 745 200 653 200 540 c 10
 200 0 l 25
 110 0 l 1
20 440 m 1xbc
 70 440 91.2061475843 443.159597133 110 450 c 1
 350 450 l 1
 350 420 l 1xdc
 20 420 l 1
 20 440 l 1xbc
EndSplineSet
EndChar

StartChar: l
Encoding: 108 108 8
Width: 300
VWidth: 0
Flags: W
HStem: 0 20<10 290> 695 10<20 44.0411> 720 20G<95 195>
VStem: 105 90<0 681.284>
LayerCount: 2
Fore
SplineSet
10 20 m 1
 105 20 l 1
 195 20 l 1
 290 20 l 1
 290 0 l 1
 10 0 l 1
 10 20 l 1
195 0 m 1
 105 0 l 1
 105 650 l 18
 105 685 54 695 20 695 c 1
 20 705 l 1
 195 740 l 1
 195 0 l 1
EndSplineSet
Validated: 5
EndChar

StartChar: c
Encoding: 99 99 9
Width: 510
VWidth: 0
Flags: W
HStem: -20 20<231.602 323.168> 450 20<229 327.267>
VStem: 40 100<110.485 329.219> 380 90<293.009 393.065>
LayerCount: 2
Fore
SplineSet
450 151 m 1
 470 140 l 1
 438 51 375 -20 275 -20 c 0
 166 -20 40 50 40 220 c 0
 40 390 166 470 275 470 c 0
 365 470 470 420 470 330 c 0
 470 300 445 285 425 285 c 0
 405 285 380 303 380 340 c 0
 380 430 330 450 275 450 c 0
 195 450 140 380 140 230 c 0
 140 80 195 0 275 0 c 0
 350 0 419 66 450 151 c 1
EndSplineSet
Validated: 1
EndChar

StartChar: g
Encoding: 103 103 10
Width: 540
VWidth: 0
Flags: W
HStem: -220 15<191.042 302.337> 3 80<177.178 385.527> 173 16<206.999 274.934> 390 80<446.439 524.378> 455 15<209.08 269.932>
VStem: 45 50<-150.965 -34.7891> 60 95<246.785 398.623> 60 50<99.3316 164.692> 325 95<239.212 389.576> 425 45<-133.171 -28.5728>
LayerCount: 2
Fore
SplineSet
165 203 m 9xe1c0
 165 200 l 17
 118 183 110 153 110 133 c 0xe1c0
 110 103 130 83 250 83 c 0
 400 83 470 45 470 -55 c 0
 470 -175 355 -220 245 -220 c 0
 125 -220 45 -167 45 -97 c 0
 45 -27 116 18 175 28 c 9
 175 23 l 17
 126 14 95 -34 95 -87 c 0xe4c0
 95 -147 145 -205 245 -205 c 0
 335 -205 425 -155 425 -75 c 0
 425 -15 360 3 230 3 c 0
 130 3 60 43 60 113 c 0
 60 163 106 193 165 203 c 9xe1c0
409 340 m 1
 418 389 430 470 490 470 c 0
 520 470 530 450 530 430 c 0
 530 410 510 390 480 390 c 0xf0c0
 440 390 422 379 415 340 c 1
 409 340 l 1
155 323 m 0xeac0
 155 233 190 189 240 189 c 0
 290 189 325 223 325 313 c 0
 325 403 290 455 240 455 c 0
 190 455 155 413 155 323 c 0xeac0
60 323 m 0
 60 423 150 470 240 470 c 0
 330 470 420 413 420 313 c 0
 420 213 330 173 240 173 c 0
 150 173 60 223 60 323 c 0
EndSplineSet
Validated: 5
EndChar

StartChar: o
Encoding: 111 111 11
Width: 540
VWidth: 0
Flags: W
HStem: -20 20<226.833 315.753> 450 20<224.247 313.167>
VStem: 40 100<119.745 340.961> 400 100<109.039 330.255>
LayerCount: 2
Fore
SplineSet
140 230 m 0
 140 80 190 0 270 0 c 0
 350 0 400 70 400 220 c 0
 400 370 350 450 270 450 c 0
 190 450 140 380 140 230 c 0
40 230 m 0
 40 400 160 470 270 470 c 0
 380 470 500 390 500 220 c 0
 500 50 380 -20 270 -20 c 0
 160 -20 40 60 40 230 c 0
EndSplineSet
Validated: 1
EndChar

StartChar: t
Encoding: 116 116 12
Width: 330
VWidth: 0
Flags: W
HStem: -20 20<222.587 283.171> 430 20<180 320> 430 10<10 23.1664>
VStem: 90 90<46.8183 430> 170 10<589.68 610>
LayerCount: 2
Fore
SplineSet
10 440 m 1xb0
 106 473 151 520 170 610 c 1
 180 610 l 1
 180 450 l 1xc8
 320 450 l 1
 320 430 l 1
 180 430 l 1xd0
 180 150 l 2
 180 40 210 0 255 0 c 0
 280 0 300 13 315 25 c 1
 320 20 l 1
 307 4 285 -20 235 -20 c 0
 145 -20 90 30 90 150 c 2
 90 430 l 1
 10 430 l 1
 10 440 l 1xb0
EndSplineSet
Validated: 1
EndChar

StartChar: p
Encoding: 112 112 13
Width: 600
VWidth: 0
Flags: W
HStem: -200 20<10 290> -20 20<265.778 357.073> 425 10<20 44.0411> 450 20<265.778 357.073>
VStem: 105 90<-200 415> 114 25<105.417 344.583> 454 106<118.217 339.515>
LayerCount: 2
Fore
SplineSet
114 225 m 0xf6
 114 395 221 470 331 470 c 0
 441 470 560 400 560 230 c 0
 560 60 441 -20 331 -20 c 0
 221 -20 114 55 114 225 c 0xf6
139 225 m 0
 139 75 211 0 311 0 c 0
 391 0 454 70 454 220 c 0
 454 370 391 450 311 450 c 0
 211 450 139 375 139 225 c 0
10 -180 m 1
 105 -180 l 1
 195 -180 l 1xfa
 290 -180 l 1
 290 -200 l 1
 10 -200 l 1
 10 -180 l 1
195 -200 m 1
 105 -200 l 1
 105 380 l 18
 105 415 54 425 20 425 c 1
 20 435 l 1
 195 470 l 1
 195 -200 l 1
EndSplineSet
Validated: 5
EndChar

StartChar: q
Encoding: 113 113 14
Width: 590
VWidth: 0
Flags: W
HStem: -200 20<300 580> -20 20<234.166 325.481> 450 20<234.166 325.481>
VStem: 40 100<105.221 337.203> 395 90<-200 413.255> 455 25<106.348 343.652>
LayerCount: 2
Fore
SplineSet
455 225 m 0xf4
 455 375 380 450 280 450 c 0
 200 450 140 380 140 230 c 0
 140 80 200 0 280 0 c 0
 380 0 455 75 455 225 c 0xf4
480 225 m 0
 480 55 370 -20 260 -20 c 0
 150 -20 40 50 40 220 c 0
 40 390 150 470 260 470 c 0
 370 470 480 395 480 225 c 0
300 -180 m 1
 395 -180 l 1
 485 -180 l 1xf8
 580 -180 l 1
 580 -200 l 1
 300 -200 l 1
 300 -180 l 1
485 -200 m 1
 395 -200 l 1
 395 405 l 1xf8
 436 418 463 440 480 470 c 1xf4
 485 470 l 1
 485 -200 l 1
EndSplineSet
Validated: 5
EndChar

StartChar: u
Encoding: 117 117 16
Width: 610
VWidth: 0
Flags: W
HStem: -20 20<264.378 333.758> 15 10<575.959 600> 425 10<10 34.0411 340 364.041> 450 20G<85 185 415 515>
VStem: 95 90<67.146 411.284> 425 90<38.716 411.284>
LayerCount: 2
Fore
SplineSet
515 70 m 18
 515 35 566 25 600 25 c 1
 600 15 l 1
 425 -20 l 1
 425 380 l 18
 425 415 374 425 340 425 c 1
 340 435 l 1
 515 470 l 1
 515 70 l 18
185 180 m 2
 185 60 235 0 315 0 c 0
 395 0 439 79 470 164 c 1
 470 123 l 1
 432 41 365 -20 275 -20 c 0
 165 -20 95 30 95 180 c 2
 95 380 l 18
 95 415 44 425 10 425 c 1
 10 435 l 1
 185 470 l 1
 185 180 l 2
EndSplineSet
Validated: 5
EndChar

StartChar: v
Encoding: 118 118 17
Width: 560
VWidth: 0
Flags: W
HStem: 0 21G<251.724 298.276> 435 15<0 83.0521 175 265 370 370 466.948 560>
LayerCount: 2
Fore
SplineSet
449 435 m 1
 439 410 l 1
 447 429 416 435 370 435 c 1
 449 435 l 1
175 435 m 1
 265 435 l 1
 206 435 176 433 184 410 c 1
 175 435 l 1
550 435 m 1
 508 433 470 432 459 410 c 1
 470 435 l 25
 550 435 l 1
0 435 m 1
 80 435 l 25
 91 410 l 1
 80 432 42 433 0 435 c 1
265 435 m 1
 175 435 l 1
 305 85 l 1
 449 435 l 1
 370 435 l 1
 370 450 l 1
 560 450 l 1
 560 435 l 1
 470 435 l 1
 290 0 l 1
 260 0 l 1
 80 435 l 25
 0 435 l 1
 0 450 l 9
 265 450 l 25
 265 435 l 1
EndSplineSet
Validated: 37
EndChar

StartChar: w
Encoding: 119 119 18
Width: 870
VWidth: 0
Flags: W
HStem: 0 21G<251.724 298.276 561.724 608.276> 435 15<0 83.0521 175 265 310 449 470 575 680 680 777.178 870>
LayerCount: 2
Fore
SplineSet
870 435 m 1
 809 433 780 432 769 410 c 1
 780 435 l 25
 870 435 l 1
759 435 m 1
 749 410 l 1
 757 429 726 435 680 435 c 1
 759 435 l 1
485 435 m 1
 575 435 l 1
 516 435 486 433 494 410 c 1
 485 435 l 1
310 435 m 1
 390 435 l 25
 401 410 l 1
 390 432 352 433 310 435 c 1
175 435 m 1
 265 435 l 1
 206 435 176 433 184 410 c 1
 175 435 l 1
0 435 m 1
 80 435 l 25
 91 410 l 1
 80 432 42 433 0 435 c 1
575 435 m 1
 485 435 l 1
 615 85 l 1
 759 435 l 1
 680 435 l 1
 680 450 l 1
 870 450 l 1
 870 435 l 1
 780 435 l 1
 600 0 l 1
 570 0 l 1
 390 435 l 25
 310 435 l 1
 310 450 l 9
 575 450 l 25
 575 435 l 1
265 435 m 1
 175 435 l 1
 305 85 l 1
 449 435 l 1
 370 435 l 1
 370 450 l 1
 560 450 l 1
 560 435 l 1
 470 435 l 1
 290 0 l 1
 260 0 l 1
 80 435 l 25
 0 435 l 1
 0 450 l 9
 265 450 l 25
 265 435 l 1
EndSplineSet
Validated: 37
EndChar

StartChar: x
Encoding: 120 120 19
Width: 580
VWidth: 0
Flags: W
HStem: 0 20<0 92.8328 300 300 488.956 580> 430 20<20 111.044 217 300 347 347 465.167 558>
LayerCount: 2
Fore
SplineSet
430 430 m 1
 409 405 l 1
 426 426 398 430 347 430 c 1
 430 430 l 1
383 20 m 1
 300 20 l 1
 356 20 379 25 367 45 c 1
 383 20 l 1
127 20 m 1
 148 45 l 1
 131 24 159 20 210 20 c 1
 127 20 l 1
217 430 m 1
 300 430 l 1
 244 430 221 425 233 405 c 1
 217 430 l 1
558 430 m 1
 511 429 470 425 451 405 c 1
 473 430 l 1
 558 430 l 1
580 20 m 1
 495 20 l 1
 478 45 l 1
 493 24 533 21 580 20 c 1
0 20 m 1
 47 21 88 25 107 45 c 1
 85 20 l 1
 0 20 l 1
20 430 m 1
 105 430 l 1
 122 405 l 1
 107 426 67 429 20 430 c 1
85 20 m 9
 430 430 l 17
 347 430 l 1
 347 450 l 1
 558 450 l 1
 558 430 l 1
 473 430 l 9
 127 20 l 17
 210 20 l 1
 210 0 l 1
 0 0 l 1
 0 20 l 1
 85 20 l 9
495 20 m 17
 580 20 l 1
 580 0 l 1
 300 0 l 1
 300 20 l 1
 383 20 l 1
 105 430 l 17
 20 430 l 1
 20 450 l 1
 300 450 l 1
 300 430 l 1
 217 430 l 1
 495 20 l 17
EndSplineSet
Validated: 37
EndChar

StartChar: y
Encoding: 121 121 20
Width: 560
VWidth: 0
Flags: W
HStem: -220 20<130.987 180.181> -20 20G<261.818 290> 0 21G<251.724 298.276> 435 15<0 83.0521 175 265 370 370 466.948 560>
VStem: 10 90<-171.147 -72.5552>
LayerCount: 2
Fore
SplineSet
449 435 m 1x98
 439 410 l 1
 447 429 416 435 370 435 c 1
 449 435 l 1x98
175 435 m 1
 265 435 l 1
 206 435 176 433 184 410 c 1
 175 435 l 1
550 435 m 1
 508 433 470 432 459 410 c 1
 470 435 l 25
 550 435 l 1
0 435 m 1
 80 435 l 25
 91 410 l 1
 80 432 42 433 0 435 c 1
265 435 m 1
 175 435 l 1
 305 85 l 1
 449 435 l 1
 370 435 l 1
 370 450 l 1
 560 450 l 1
 560 435 l 1
 470 435 l 1
 290 0 l 1xd8
 260 0 l 1xb8
 80 435 l 25
 0 435 l 1
 0 450 l 9
 265 450 l 25
 265 435 l 1
290 0 m 1
 245 -110 l 2
 218 -173 200 -220 140 -220 c 0
 80 -220 10 -180 10 -110 c 0
 10 -75 35 -65 55 -65 c 0
 75 -65 92 -76 100 -120 c 0
 110 -179 130 -200 160 -200 c 0
 190 -200 201 -165 225 -110 c 2
 270 0 l 1
 290 0 l 1
EndSplineSet
Validated: 37
EndChar

StartChar: z
Encoding: 122 122 21
Width: 450
VWidth: 0
Flags: W
HStem: 0 20<115 377.912> 430 20<89.486 320>
VStem: 40 20<325 378.118> 420 20<89.4357 125>
LayerCount: 2
Fore
SplineSet
10 0 m 1
 10 20 l 1
 320 430 l 1
 110 430 l 1
 80 430 67 380 60 325 c 1
 40 325 l 1
 40 450 l 1
 425 450 l 1
 425 430 l 1
 115 20 l 1
 340 20 l 1
 390 20 399.294921875 47.7255859375 420 125 c 1
 440 125 l 1
 420 0 l 5
 10 0 l 1
EndSplineSet
EndChar

StartChar: dotlessi
Encoding: 305 305 22
Width: 300
VWidth: 0
Flags: W
HStem: 0 20<10 290> 425 10<20 44.0411> 450 20G<95 195>
VStem: 105 90<0 411.284>
LayerCount: 2
Fore
SplineSet
10 20 m 1
 105 20 l 1
 195 20 l 1
 290 20 l 1
 290 0 l 1
 10 0 l 1
 10 20 l 1
195 0 m 1
 105 0 l 1
 105 380 l 22
 105 415 54 425 20 425 c 5
 20 435 l 5
 195 470 l 5
 195 0 l 1
EndSplineSet
Validated: 5
EndChar

StartChar: ampersand
Encoding: 38 38 23
Width: 695
VWidth: 0
Flags: W
HStem: -20 26<237.825 355.022> 0 35<574.408 644.466> 325 15<476 695> 695 25<270.299 367.964>
VStem: 50 100<89.966 256.102> 130 90<509.145 645.628> 415 90<506.315 647.027>
LayerCount: 2
Fore
SplineSet
476 325 m 1x32
 476 340 l 1
 695 340 l 1
 695 325 l 1
 603 325 l 1
 573 325 l 1
 476 325 l 1x32
50 180 m 3xba
 50 270 124 332 260 395 c 0
 378 450 415 525 415 575 c 3
 415 625 400 695 320 695 c 3
 240 695 220 629 220 584 c 3
 220 529 262 470 320 401 c 1
 510 130 l 2
 556 64 585 35 610 35 c 3
 625 35 655 43 672 88 c 1
 680 80 l 1
 664 36 649 0 589 0 c 3
 539 0 492 11 445 75 c 2
 230 368 l 2
 183 432 130 495 130 570 c 3x76
 130 655 200 720 320 720 c 3
 440 720 505 655 505 575 c 3
 505 485 417 439 290 380 c 0
 172 325 150 240 150 180 c 3
 150 110 195 6 285 6 c 3
 425 6 544 133 580 340 c 1
 610 340 l 1
 577 153 485 -20 285 -20 c 3
 115 -20 50 80 50 180 c 3xba
EndSplineSet
Validated: 5
EndChar

StartChar: quotesingle
Encoding: 39 39 24
Width: 160
VWidth: 0
Flags: W
HStem: 500 240<75 85>
VStem: 40 80<545.938 733.281>
LayerCount: 2
Fore
SplineSet
75 500 m 1
 55 570 l 2
 50 589 40 640 40 670 c 0
 40 700 50 740 80 740 c 0
 110 740 120 700 120 670 c 0
 120 640 110 589 105 570 c 2
 85 500 l 1
 75 500 l 1
EndSplineSet
Validated: 1
EndChar

StartChar: parenleft
Encoding: 40 40 25
Width: 270
VWidth: 0
Flags: W
VStem: 70 100<164.084 475.916>
LayerCount: 2
Fore
SplineSet
70 320 m 0
 70 480 137 637 240 760 c 1
 260 760 l 1
 205 610 170 480 170 320 c 0
 170 160 205 30 260 -120 c 1
 240 -120 l 1
 137 3 70 160 70 320 c 0
EndSplineSet
Validated: 1
EndChar

StartChar: parenright
Encoding: 41 41 26
Width: 270
VWidth: 0
Flags: W
VStem: 100 100<164.084 475.916>
LayerCount: 2
Fore
SplineSet
200 320 m 0
 200 160 133 3 30 -120 c 1
 10 -120 l 1
 65 30 100 160 100 320 c 0
 100 480 65 610 10 760 c 1
 30 760 l 1
 133 637 200 480 200 320 c 0
EndSplineSet
Validated: 1
EndChar

StartChar: asterisk
Encoding: 42 42 27
Width: 480
VWidth: 0
Flags: W
HStem: 511 30<50 50 259 435> 700 20G<229 259>
VStem: 229 30<541 720>
LayerCount: 2
Fore
SplineSet
93 399 m 1
 229 526 l 1
 95 660 l 1
 111 677 l 1
 244 543 l 1
 375 679 l 1
 392 662 l 1
 261 526 l 1
 390 395 l 1
 373 378 l 1
 244 511 l 1
 109 382 l 1
 93 399 l 1
50 511 m 1
 50 541 l 1
 229 541 l 1
 229 720 l 1
 259 720 l 1
 259 541 l 1
 435 541 l 1
 435 511 l 1
 259 511 l 1
 259 335 l 1
 229 335 l 1
 229 511 l 1
 50 511 l 1
EndSplineSet
Validated: 5
EndChar

StartChar: plus
Encoding: 43 43 28
Width: 440
VWidth: -50
Flags: W
HStem: 300 30<40 400>
VStem: 205 30<135 495>
LayerCount: 2
Fore
SplineSet
40 300 m 1
 40 330 l 1
 400 330 l 1
 400 300 l 1
 40 300 l 1
235 495 m 1
 235 135 l 1
 205 135 l 1
 205 495 l 1
 235 495 l 1
EndSplineSet
Validated: 5
EndChar

StartChar: comma
Encoding: 44 44 29
Width: 300
VWidth: 0
Flags: W
VStem: 90 120<7 86.2546> 169 41<7 40>
LayerCount: 2
Fore
SplineSet
169 40 m 9x40
 210 40 l 17x80
 210 -42 151 -110 95 -150 c 9
 85 -135 l 17
 129 -97 166 -30 169 40 c 9x40
90 40 m 24
 90 73 117 100 150 100 c 24
 183 100 210 73 210 40 c 24
 210 7 183 -20 150 -20 c 24
 117 -20 90 7 90 40 c 24
EndSplineSet
Validated: 5
EndChar

StartChar: hyphen
Encoding: 45 45 30
Width: 340
VWidth: 50
Flags: W
HStem: 230 60<50 290>
VStem: 50 240<230 290>
LayerCount: 2
Fore
SplineSet
50 230 m 1
 50 290 l 1
 290 290 l 1
 290 230 l 1
 50 230 l 1
EndSplineSet
Validated: 1
EndChar

StartChar: period
Encoding: 46 46 31
Width: 300
VWidth: 0
Flags: W
HStem: -20 120<103.745 196.255>
VStem: 90 120<-6.25464 86.2546>
LayerCount: 2
Fore
SplineSet
90 40 m 24
 90 73 117 100 150 100 c 24
 183 100 210 73 210 40 c 24
 210 7 183 -20 150 -20 c 24
 117 -20 90 7 90 40 c 24
EndSplineSet
Validated: 1
EndChar

StartChar: slash
Encoding: 47 47 32
Width: 260
VWidth: 0
Flags: W
HStem: 0 21G<20 74.7222> 700 20G<185.278 240>
VStem: 20 220
LayerCount: 2
Fore
SplineSet
20 0 m 25
 190 720 l 25
 240 720 l 25
 70 0 l 25
 20 0 l 25
EndSplineSet
Validated: 1
EndChar

StartChar: zero
Encoding: 48 48 33
Width: 580
VWidth: 0
Flags: W
HStem: -20 25<247.684 332.316> 695 25<247.684 332.316>
VStem: 50 100<165.2 534.8> 430 100<165.2 534.8>
LayerCount: 2
Fore
SplineSet
150 350 m 3
 150 130 200 5 290 5 c 3
 380 5 430 130 430 350 c 3
 430 570 380 695 290 695 c 3
 200 695 150 570 150 350 c 3
50 350 m 3
 50 630 160 720 290 720 c 3
 420 720 530 630 530 350 c 3
 530 70 420 -20 290 -20 c 3
 160 -20 50 70 50 350 c 3
EndSplineSet
Validated: 1
EndChar

StartChar: one
Encoding: 49 49 34
Width: 580
VWidth: 0
Flags: W
HStem: 0 25<170 470> 700 20G<318 370>
VStem: 270 100<0 643>
LayerCount: 2
Fore
SplineSet
370 0 m 1
 270 0 l 1
 270 643 l 1
 120 595 l 1
 110 620 l 1
 370 720 l 1
 370 0 l 1
170 25 m 1
 270 25 l 1
 370 25 l 1
 470 25 l 1
 470 0 l 1
 170 0 l 1
 170 25 l 1
EndSplineSet
Substitution2: "'sups' +xxfMqMeQ lookup 0 subtable" one.superior
EndChar

StartChar: two
Encoding: 50 50 35
Width: 580
VWidth: 0
Flags: W
HStem: 0 85<150 480> 671 49<191.994 338.311>
VStem: 410 100<411.563 596.424>
LayerCount: 2
Fore
SplineSet
70 560 m 1
 116 660 185 720 285 720 c 3
 395 720 510 640 510 520 c 3
 510 300 244 119 150 85 c 9
 460 85 l 17
 492 85 512 127 530 170 c 9
 540 165 l 1
 480 0 l 17
 50 0 l 1
 50 40 l 17
 102 70 410 260 410 500 c 3
 410 610 345 671 265 671 c 3
 185 671 120 624 80 555 c 1
 70 560 l 1
EndSplineSet
Validated: 1
Substitution2: "'sups' +xxfMqMeQ lookup 0 subtable" two.superior
EndChar

StartChar: three
Encoding: 51 51 36
Width: 580
VWidth: 0
Flags: W
HStem: -20 20<233.766 331.488> 670 50<193.305 336.177>
VStem: 50 100<65.1936 179.769> 390 100<459.575 616.327> 420 100<99.9915 255.094>
LayerCount: 2
Fore
SplineSet
520 180 m 0xe8
 520 50 375 -20 265 -20 c 0
 155 -20 50 40 50 130 c 0
 50 160 70 190 100 190 c 0
 130 190 150 160 150 130 c 0
 150 60 205 0 285 0 c 0
 365 0 420 70 420 180 c 0xe8
 420 260 369 315 265 350 c 2
 220 365 l 25
 265 380 l 2
 341 405 390 450 390 540 c 0
 390 630 325 670 265 670 c 0
 195 670 120 634 80 565 c 1
 70 570 l 1
 116 670 205 720 285 720 c 3
 385 720 490 660 490 530 c 0xf0
 490 450 408 383 340 365 c 1
 427 342 520 274 520 180 c 0xe8
EndSplineSet
Validated: 1
Substitution2: "'sups' +xxfMqMeQ lookup 0 subtable" three.superior
EndChar

StartChar: four
Encoding: 52 52 37
Width: 580
VWidth: 0
Flags: W
HStem: 0 21G<340 440> 160 20<80 550> 700 20G<425.714 440>
VStem: 340 100<0 540>
LayerCount: 2
Fore
SplineSet
440 0 m 1
 340 0 l 1
 340 540 l 1
 80 180 l 1
 550 180 l 1
 550 160 l 1
 40 160 l 1
 440 720 l 1
 440 0 l 1
EndSplineSet
Validated: 5
EndChar

StartChar: five
Encoding: 53 53 38
Width: 580
VWidth: 0
Flags: W
HStem: -20 20<223.909 315.613> 411 29<212.412 318.671> 615 85<125 430> 700 20G<439 470>
VStem: 70 90<44.8853 137.808> 100 25<331 615> 410 100<116.344 317.324>
LayerCount: 2
Fore
SplineSet
70 95 m 3xca
 70 120 85 145 115 145 c 3
 145 145 156 120 160 95 c 0xca
 167 56 195 0 275 0 c 3
 365 0 410 115 410 215 c 3
 410 315 355 411 265 411 c 3
 190 411 138 354 100 272 c 1xc6
 131 388 195 440 285 440 c 3
 385 440 510 375 510 215 c 3
 510 55 375 -20 275 -20 c 3
 175 -20 70 25 70 95 c 3xca
100 272 m 1xe6
 100 700 l 1
 439 700 l 17
 459 720 l 1xd6
 470 715 l 1
 430 615 l 9
 125 615 l 1
 125 331 l 1
 100 272 l 1xe6
EndSplineSet
EndChar

StartChar: six
Encoding: 54 54 39
Width: 580
VWidth: 0
Flags: W
HStem: -20 25<240.057 339.943> 385 25<237.063 343.063> 700 20G<316 430>
VStem: 60 90<103.79 300> 60 80<200 310> 430 90<103.79 296.864>
LayerCount: 2
Fore
SplineSet
290 -20 m 0xf4
 150 -20 60 80 60 200 c 16
 60 310 160 410 310 410 c 0
 430 410 520 325 520 200 c 24
 520 80 430 -20 290 -20 c 0xf4
430 200 m 0
 430 300 380 385 290 385 c 0
 200 385 150 300 150 200 c 0
 150 100 200 5 290 5 c 0
 380 5 430 100 430 200 c 0
60 200 m 17
 60 460 212 600 420 720 c 1
 430 705 l 1
 257 605 140 400 140 200 c 1xec
 60 200 l 17
EndSplineSet
Validated: 5
EndChar

StartChar: seven
Encoding: 55 55 40
Width: 580
VWidth: 0
Flags: W
HStem: -20 21G<205 235> 635 65<101 480> 700 20G<85.671 110>
VStem: 40 14<487 513.415> 90 20<700.007 720> 182 98<0.902405 40>
LayerCount: 2
Fore
SplineSet
182 40 m 3xbc
 182 70 197 111 240 190 c 2
 480 635 l 1
 101 635 l 1xdc
 90 700 l 1
 540 700 l 1
 280 40 l 18
 263 4 250 -20 220 -20 c 8
 190 -20 182 10 182 40 c 3xbc
151 635 m 1
 104 635 74 575 54 485 c 1
 40 489 l 1
 90 720 l 1
 110 720 l 1xbc
 110 710 113 700 120 700 c 1
 151 635 l 1
EndSplineSet
Validated: 5
EndChar

StartChar: eight
Encoding: 56 56 41
Width: 580
VWidth: 0
Flags: W
HStem: -20 25<238.833 341.167> 390 25<180 400> 695 25<244.519 335.481>
VStem: 50 95<99.2906 280.731> 90 95<480.182 637.065> 395 95<480.182 637.065> 435 95<99.2906 280.731>
LayerCount: 2
Fore
SplineSet
290 720 m 0xec
 400 720 490 660 490 560 c 0
 490 460 400 390 290 390 c 0
 180 390 90 460 90 560 c 0
 90 660 180 720 290 720 c 0xec
185 560 m 0
 185 490 220 415 290 415 c 0
 360 415 395 490 395 560 c 0
 395 630 360 695 290 695 c 0
 220 695 185 630 185 560 c 0
290 415 m 0
 430 415 530 310 530 190 c 24
 530 65 430 -20 290 -20 c 0
 150 -20 50 65 50 190 c 24xf2
 50 310 150 415 290 415 c 0
145 190 m 0
 145 90 205 5 290 5 c 0
 375 5 435 90 435 190 c 0
 435 290 375 390 290 390 c 0
 205 390 145 290 145 190 c 0
EndSplineSet
Validated: 5
EndChar

StartChar: nine
Encoding: 57 57 42
Width: 580
VWidth: 0
Flags: W
HStem: -20 21G<150 264> 290 25<236.937 342.937> 695 25<240.057 339.943>
VStem: 60 90<403.136 596.21> 430 90<400 596.21> 440 80<390 500>
LayerCount: 2
Fore
SplineSet
290 720 m 0xf8
 430 720 520 620 520 500 c 16
 520 390 420 290 270 290 c 0
 150 290 60 375 60 500 c 24
 60 620 150 720 290 720 c 0xf8
150 500 m 0
 150 400 200 315 290 315 c 0
 380 315 430 400 430 500 c 0
 430 600 380 695 290 695 c 0
 200 695 150 600 150 500 c 0
520 500 m 17
 520 240 368 100 160 -20 c 1
 150 -5 l 1
 323 95 440 300 440 500 c 1xf4
 520 500 l 17
EndSplineSet
Validated: 5
EndChar

StartChar: uni0237
Encoding: 567 567 44
Width: 300
VWidth: 0
Flags: W
HStem: -220 20<37.8158 96.488> 425 10<50 74.0411> 450 20G<125 225>
VStem: -80 90<-168.508 -70.8483> 135 90<-146.201 411.284>
LayerCount: 2
Fore
SplineSet
225 0 m 6
 225 -148 190 -220 80 -220 c 4
 -15 -220 -80 -175 -80 -110 c 4
 -80 -73 -55 -65 -35 -65 c 4
 -15 -65 10 -75 10 -120 c 4
 10 -180 40 -200 70 -200 c 4
 120 -200 135 -140 135 0 c 6
 135 380 l 18
 135 415 84 425 50 425 c 1
 50 435 l 1
 225 470 l 1
 225 0 l 6
EndSplineSet
Validated: 1
EndChar

StartChar: r
Encoding: 114 114 46
Width: 410
VWidth: 0
Flags: W
HStem: 0 20<10 290> 425 10<20 44.0411> 450 20<252.896 299.009>
VStem: 105 90<0 411.284> 105 35<230 309.085> 310 90<356.409 440.703>
LayerCount: 2
Fore
SplineSet
10 20 m 1xf4
 105 20 l 1
 195 20 l 1
 290 20 l 1
 290 0 l 1
 10 0 l 1
 10 20 l 1xf4
195 0 m 1
 105 0 l 1
 105 380 l 18
 105 415 54 425 20 425 c 1
 20 435 l 1
 195 470 l 1
 195 0 l 1
270 450 m 0
 190 450 157 293 140 195 c 9
 140 230 l 1xec
 164 368 206 470 296 470 c 0
 356 470 400 435 400 395 c 3
 400 375 385 350 355 350 c 3
 330 350 310 370 310 390 c 3
 310 410 315 450 270 450 c 0
EndSplineSet
Validated: 37
EndChar

StartChar: less
Encoding: 60 60 49
Width: 560
VWidth: 0
Flags: W
LayerCount: 2
Fore
SplineSet
40 340 m 1
 520 555 l 1
 520 510 l 1
 80 310 l 1
 520 110 l 1
 520 65 l 1
 40 280 l 1
 40 340 l 1
EndSplineSet
Validated: 1
EndChar

StartChar: equal
Encoding: 61 61 50
Width: 440
VWidth: -50
Flags: W
HStem: 225 30<40 400> 375 30<40 400>
LayerCount: 2
Fore
SplineSet
40 375 m 1
 40 405 l 1
 400 405 l 1
 400 375 l 1
 40 375 l 1
40 225 m 1
 40 255 l 1
 400 255 l 1
 400 225 l 1
 40 225 l 1
EndSplineSet
Validated: 1
EndChar

StartChar: greater
Encoding: 62 62 51
Width: 560
VWidth: 0
Flags: W
LayerCount: 2
Fore
SplineSet
520 340 m 1
 520 280 l 1
 40 65 l 1
 40 110 l 1
 490 310 l 1
 40 510 l 1
 40 555 l 1
 520 340 l 1
EndSplineSet
Validated: 1
EndChar

StartChar: question
Encoding: 63 63 52
Width: 580
VWidth: 0
Flags: W
HStem: -20 120<223.745 316.255> 705 15<233.228 325.281>
VStem: 60 100<501.074 622.969> 210 120<-6.25464 86.2546> 265 15<160 287> 420 100<438.403 604.855>
LayerCount: 2
Fore
SplineSet
160 550 m 0xec
 160 520 140 490 110 490 c 27
 82 490 60 520 60 550 c 3
 60 660 175 720 285 720 c 3
 395 720 520 650 520 520 c 3
 520 400 401 323 285 287 c 9
 280 160 l 25
 265 160 l 25
 260 307 l 17
 347 347 420 430 420 520 c 3
 420 630 365 705 285 705 c 3
 185 705 160 650 160 550 c 0xec
210 40 m 24xf4
 210 73 237 100 270 100 c 24
 303 100 330 73 330 40 c 24
 330 7 303 -20 270 -20 c 24
 237 -20 210 7 210 40 c 24xf4
EndSplineSet
EndChar

StartChar: at
Encoding: 64 64 53
Width: 948
VWidth: 0
Flags: W
HStem: -180 35<259.257 457.055> 30 40<371.1 487.623> 40 50<665 709.9> 470 40<472.369 601.277> 690 30<484.452 665.279>
VStem: 41 54<19.9375 281.272> 253 83<107.393 300.652> 849 55<293.068 524.154>
LayerCount: 2
Fore
SplineSet
336 190 m 0xdf
 336 121 363 70 430 70 c 0
 542 70 636 219 636 352 c 0
 636 421 610 470 543 470 c 0
 431 470 336 323 336 190 c 0xdf
904 402 m 0
 904 242 755 40 655 40 c 0xbf
 605 40 584 78 584 118 c 1
 532 64 467 30 404 30 c 0xdf
 313 30 253 102 253 200 c 0
 253 371 407 510 532 510 c 0
 595 510 643 476 666 422 c 1
 687 500 l 1
 770 500 l 1
 665 90 l 1xbf
 734 90 849 273 849 403 c 0
 849 583 734 690 571 690 c 0
 342 690 95 410 95 144 c 0
 95 -12 185 -145 355 -145 c 0
 435 -145 568 -100 658 -40 c 1
 669 -60 l 1
 565 -130 462 -180 329 -180 c 0
 148 -180 41 -42 41 138 c 0
 41 454 329 720 579 720 c 0
 778 720 904 592 904 402 c 0
EndSplineSet
Validated: 1
EndChar

StartChar: bracketleft
Encoding: 91 91 54
Width: 310
VWidth: 0
Flags: W
HStem: -120 25<160 290> 695 25<160 290>
VStem: 60 100<-95 695>
LayerCount: 2
Fore
SplineSet
60 -120 m 1
 60 720 l 1
 290 720 l 1
 290 695 l 1
 160 695 l 1
 160 -95 l 1
 290 -95 l 1
 290 -120 l 1
 60 -120 l 1
EndSplineSet
Validated: 1
EndChar

StartChar: backslash
Encoding: 92 92 55
Width: 260
VWidth: 0
Flags: W
HStem: 0 21G<185.278 240> 700 20G<20 74.7222>
VStem: 20 220
LayerCount: 2
Fore
SplineSet
240 0 m 25
 190 0 l 25
 20 720 l 25
 70 720 l 25
 240 0 l 25
EndSplineSet
Validated: 1
EndChar

StartChar: bracketright
Encoding: 93 93 56
Width: 310
VWidth: 0
Flags: W
HStem: -120 30<20 150> 690 30<20 150>
VStem: 150 100<-90 690>
LayerCount: 2
Fore
SplineSet
250 -120 m 1
 20 -120 l 1
 20 -90 l 1
 150 -90 l 1
 150 690 l 1
 20 690 l 1
 20 720 l 1
 250 720 l 1
 250 -120 l 1
EndSplineSet
Validated: 1
EndChar

StartChar: asciicircum
Encoding: 94 94 57
Width: 400
VWidth: 0
Flags: W
HStem: 420 230
LayerCount: 2
Fore
SplineSet
220 650 m 1
 380 420 l 1
 370 420 l 1
 200 600 l 1
 30 420 l 1
 20 420 l 1
 180 650 l 1
 220 650 l 1
EndSplineSet
Validated: 1
EndChar

StartChar: underscore
Encoding: 95 95 58
Width: 460
VWidth: 0
Flags: W
HStem: -100 30<0 460>
LayerCount: 2
Fore
SplineSet
0 -70 m 1
 460 -70 l 1
 460 -100 l 1
 0 -100 l 1
 0 -70 l 1
EndSplineSet
Validated: 1
EndChar

StartChar: grave
Encoding: 96 96 59
Width: 160
VWidth: 0
Flags: W
HStem: 515 215
VStem: 18 124
LayerCount: 2
Fore
SplineSet
18 695 m 0
 18 713 28 730 50 730 c 0
 72 730 91 706 102 683 c 0
 114 656 127 611 130 591 c 2
 142 519 l 1
 132 515 l 1
 84 570 l 2
 63 594 18 646 18 695 c 0
EndSplineSet
Validated: 1
EndChar

StartChar: s
Encoding: 115 115 60
Width: 410
VWidth: 0
Flags: W
HStem: -20 15<147.259 224.759> 0 21G<40 52> 431 20G<329 340> 455 15<169.933 251.875>
VStem: 40 10<0 20.2998> 50 70<314.583 411.542> 300 70<45.9138 154.914> 331 9<433.725 451>
LayerCount: 2
Fore
SplineSet
70 50 m 1xf8
 59 35 54 21 50 0 c 1
 40 0 l 1
 40 130 l 1
 70 50 l 1xf8
310 411 m 1
 323 420 327 432 331 451 c 1
 340 451 l 1
 340 340 l 1xf1
 310 411 l 1
195 470 m 3
 275 470 323 438 340 340 c 9
 326 340 l 17
 310 429 265 455 205 455 c 3
 150 455 120 410 120 360 c 3xf5
 120 330 137 306 195 290 c 0
 292 264 370 220 370 120 c 3
 370 20 285 -20 205 -20 c 3
 115 -20 59 22 40 130 c 9xfa
 55 130 l 17
 74 22 125 -5 185 -5 c 3
 245 -5 300 42 300 100 c 27
 300 147 273 173 195 190 c 0
 107 209 50 260 50 340 c 3xf6
 50 420 115 470 195 470 c 3
EndSplineSet
EndChar

StartChar: k
Encoding: 107 107 61
Width: 578
VWidth: 0
Flags: W
HStem: 0 20<10 290> 0 10<340 377.002 533.078 568> 440 10<310 372.582 470.461 508> 695 10<20 44.0411> 720 20G<95 195>
VStem: 105 90<0 681.284>
LayerCount: 2
Fore
SplineSet
10 20 m 1xbc
 290 20 l 1
 290 0 l 1
 10 0 l 1
 10 20 l 1xbc
195 0 m 1
 105 0 l 1
 105 650 l 18
 105 685 54 695 20 695 c 1
 20 705 l 1
 195 740 l 1
 195 0 l 1
310 450 m 1
 508 450 l 1
 508 440 l 1
 477 440 445 430 423 410 c 10
 265 270 l 1
 485 45 l 18
 507 22 532 10 568 10 c 1
 568 0 l 1
 340 0 l 1
 340 10 l 1x7c
 381 10 403 22 385 40 c 10
 198 236 l 1
 394 410 l 18
 415 429 375 440 310 440 c 1
 310 450 l 1
EndSplineSet
Validated: 37
EndChar

StartChar: exclam
Encoding: 33 33 62
Width: 300
VWidth: 0
Flags: W
HStem: -20 120<103.745 196.255> 720 20G<122 178>
VStem: 90 120<-6.25464 86.2546 394.89 721.128>
LayerCount: 2
Fore
SplineSet
90 40 m 24
 90 73 117 100 150 100 c 24
 183 100 210 73 210 40 c 24
 210 7 183 -20 150 -20 c 24
 117 -20 90 7 90 40 c 24
145 160 m 1
 125.826171875 379.163085938 90 433 90 610 c 24
 90 666 94 740 150 740 c 24
 206 740 210 666 210 610 c 24
 210 433 174.173828125 379.163085938 155 160 c 1
 145 160 l 1
EndSplineSet
EndChar

StartChar: C
Encoding: 67 67 63
Width: 750
VWidth: 0
Flags: W
HStem: -20 20<353.465 488.579> 690 20G<677 690> 700 20<353.465 498.817>
VStem: 70 110<209.58 490.42> 680 10<691.191 710>
LayerCount: 2
Fore
SplineSet
690 520 m 1xd8
 635 630 l 1
 656 644 674 676 680 710 c 1
 690 710 l 1
 690 520 l 1xd8
180 350 m 0
 180 130 275 0 415 0 c 0
 555 0 654 95 685 180 c 1
 700 175 l 1
 666 81 565 -20 415 -20 c 0
 225 -20 70 110 70 350 c 0
 70 590 225 720 415 720 c 0
 565 720 653.765333686 655.22961568 690 520 c 1
 670 520 l 1
 622.117179934 651.55696691 535 700 415 700 c 0xb8
 275 700 180 570 180 350 c 0
EndSplineSet
EndChar

StartChar: A
Encoding: 65 65 64
Width: 710
VWidth: 0
Flags: W
HStem: 0 25<-10 61 100 191 450 530 640 720> 230 30<166 480> 680 20G<315.237 361.504>
LayerCount: 2
Fore
SplineSet
530 25 m 25
 309 581 l 1
 100 25 l 25
 191 25 l 1
 191 0 l 1
 -10 0 l 1
 -10 25 l 1
 61 25 l 25
 323 700 l 1
 353 700 l 1
 640 25 l 25
 720 25 l 1
 720 0 l 1
 450 0 l 1
 450 25 l 1
 530 25 l 25
166 230 m 25
 166 260 l 25
 480 260 l 25
 480 230 l 25
 166 230 l 25
EndSplineSet
Validated: 5
EndChar

StartChar: B
Encoding: 66 66 65
Width: 680
VWidth: 0
Flags: W
HStem: 0 25<50 150 250 446.593> 345 25<250 403.811> 675 25<50 150 250 401.406>
VStem: 150 100<26 345 370 675> 490 100<439.461 600.237> 530 100<97.1599 266.057>
LayerCount: 2
Fore
SplineSet
50 675 m 1xf4
 50 700 l 1
 354 700 l 2
 454 700 590 660 590 520 c 0xf8
 590 432 528 384 470 360 c 1
 545 341 630 292 630 185 c 0
 630 35 498 0 398 0 c 2
 50 0 l 1
 50 25 l 1
 150 26 l 9
 150 675 l 17
 50 675 l 1xf4
350 370 m 2
 420 370 490 430 490 520 c 0
 490 610 420 675 350 675 c 2
 250 675 l 1
 250 370 l 1
 350 370 l 2
250 25 m 1
 394 25 l 2
 464 25 530 85 530 185 c 0xf4
 530 285 464 345 394 345 c 2
 250 345 l 1
 250 25 l 1
EndSplineSet
EndChar

StartChar: D
Encoding: 68 68 66
Width: 780
VWidth: 0
Flags: W
HStem: 0 25<50 150 250 430.692> 675 25<50 150 250 430.692>
VStem: 150 100<25 675> 630 100<221.026 478.974>
LayerCount: 2
Fore
SplineSet
50 675 m 1
 50 700 l 1
 380 700 l 2
 540 700 730 590 730 350 c 0
 730 110 540 0 380 0 c 2
 50 0 l 1
 50 25 l 1
 150 25 l 9
 150 675 l 17
 50 675 l 1
250 25 m 1
 360 25 l 2
 500 25 630 150 630 350 c 0
 630 550 500 675 360 675 c 2
 250 675 l 1
 250 25 l 1
EndSplineSet
EndChar

StartChar: E
Encoding: 69 69 67
Width: 670
VWidth: 0
Flags: W
HStem: 0 25<50 130 230 450 579 580> 335 30<230 360> 675 25<50 130 230 450>
VStem: 130 100<25 335 365 675> 456 15<190 251.277 435.218 510> 546 15<530 591.277> 605 15<169.69 190>
CounterMasks: 1 e0
LayerCount: 2
Fore
SplineSet
450 675 m 1
 560 675 l 25
 561 530 l 1
 546 530 l 1
 539.024414062 629.756835938 520 675 450 675 c 1
450 25 m 1
 522 25 573 78 605 190 c 1
 620 190 l 1
 579 0 l 25
 450 25 l 1
230 675 m 1
 230 700 l 1
 560 700 l 1
 560 675 l 1
 230 675 l 1
130 0 m 1
 130 700 l 1
 230 700 l 1
 230 365 l 1
 470 365 l 1
 470 335 l 1
 230 335 l 1
 230 25 l 1
 580 25 l 1
 580 0 l 1
 130 0 l 1
360 365 m 1
 430 365 456 410 456 510 c 1
 471 510 l 1
 470 365 l 25
 360 365 l 1
360 335 m 1
 470 335 l 25
 471 190 l 1
 456 190 l 1
 449.024352626 289.756405026 430 335 360 335 c 1
130 700 m 1
 130 675 l 1
 50 675 l 1
 50 700 l 1
 130 700 l 1
50 25 m 1
 130 25 l 1
 130 0 l 1
 50 0 l 1
 50 25 l 1
EndSplineSet
EndChar

StartChar: F
Encoding: 70 70 68
Width: 610
VWidth: 0
Flags: W
HStem: 0 25<50 130 230 310> 345 30<230 469> 675 25<50 130 230 449>
VStem: 130 100<25 345 375 675> 455 15<200 261.277 445.218 520> 545 15<530 591.277>
LayerCount: 2
Fore
SplineSet
449 675 m 1
 559 675 l 25
 560 530 l 1
 545 530 l 1
 538.024414062 629.756835938 519 675 449 675 c 1
230 675 m 1
 230 700 l 1
 559 700 l 1
 559 675 l 1
 230 675 l 1
130 0 m 1
 130 700 l 1
 230 700 l 1
 230 375 l 5
 469 375 l 5
 469 345 l 5
 230 345 l 5
 230 25 l 1
 310 25 l 1
 310 0 l 1
 130 0 l 1
360 375 m 5
 430 375 455 420 455 520 c 5
 470 520 l 5
 469 375 l 29
 360 375 l 5
360 345 m 5
 469 345 l 29
 470 200 l 5
 455 200 l 5
 448.024414062 299.756835938 430 345 360 345 c 5
130 700 m 1
 130 675 l 1
 50 675 l 1
 50 700 l 1
 130 700 l 1
50 25 m 1
 130 25 l 1
 130 0 l 1
 50 0 l 1
 50 25 l 1
EndSplineSet
EndChar

StartChar: G
Encoding: 71 71 69
Width: 800
VWidth: 0
Flags: W
HStem: -20 30<323.475 494.507> 320 30<450 568.978 671.022 770> 690 30<323.475 486.62> 690 20G<656 670>
VStem: 50 110<208.391 491.609> 570 100<54.8546 316.729> 640 30<520 560.854> 656 14<-10 13.9478 673.487 710>
LayerCount: 2
Fore
SplineSet
613 54 m 1xe9
 560 10 479 -20 395 -20 c 0
 205 -20 50 110 50 350 c 0
 50 590 205 720 395 720 c 0xe9
 491 720 570 675 617 630 c 1
 643 643 652 680 660 710 c 1
 670 710 l 1xd9
 670 520 l 1
 640 520 l 5xda
 624 609 525 690 395 690 c 0
 255 690 160 560 160 350 c 0
 160 140 255 10 395 10 c 0
 460 10 523 29 570 59 c 1
 570 300 l 2
 570 320 530 320 490 320 c 2
 450 320 l 1
 450 350 l 1
 770 350 l 1
 770 320 l 1
 750 320 l 2
 710 320 670 320 670 300 c 2xec
 670 -10 l 1
 656 -10 l 1
 653 16 636 42 613 54 c 1xe9
EndSplineSet
EndChar

StartChar: I
Encoding: 73 73 70
Width: 340
VWidth: 0
Flags: W
HStem: 0 25<40 300> 675 25<40 300>
VStem: 120 100<0 700>
LayerCount: 2
Fore
SplineSet
300 675 m 1
 220 675 l 1
 120 675 l 1
 40 675 l 1
 40 700 l 1
 300 700 l 1
 300 675 l 1
40 25 m 1
 120 25 l 1
 220 25 l 1
 300 25 l 1
 300 0 l 1
 40 0 l 1
 40 25 l 1
220 0 m 1
 120 0 l 1
 120 700 l 1
 220 700 l 1
 220 0 l 1
EndSplineSet
EndChar

StartChar: H
Encoding: 72 72 71
Width: 790
VWidth: 0
Flags: W
HStem: 0 25<50 130 230 310 480 560 660 740> 335 30<230 560> 675 25<50 130 230 310 480 560 660 740>
VStem: 130 100<25 335 365 675> 560 100<25 335 365 675>
CounterMasks: 1 e0
LayerCount: 2
Fore
SplineSet
310 0 m 1
 50 0 l 1
 50 25 l 1
 130 25 l 1
 130 675 l 1
 50 675 l 1
 50 700 l 1
 310 700 l 1
 310 675 l 1
 230 675 l 1
 230 365 l 1
 560 365 l 1
 560 675 l 1
 480 675 l 1
 480 700 l 1
 740 700 l 1
 740 675 l 1
 660 675 l 1
 660 25 l 1
 740 25 l 1
 740 0 l 1
 480 0 l 1
 480 25 l 1
 560 25 l 1
 560 335 l 1
 230 335 l 1
 230 25 l 1
 310 25 l 1
 310 0 l 1
EndSplineSet
Validated: 1
EndChar

StartChar: Q
Encoding: 81 81 72
Width: 800
VWidth: 0
Flags: W
HStem: -180 40<629.604 716.947> -20 20<327.609 452.391> 125 30<309.442 411.911> 690 30<311.125 468.875>
VStem: 50 110<203.455 495.849> 620 110<203.455 495.849>
LayerCount: 2
Fore
SplineSet
50 350 m 0
 50 600 200 720 390 720 c 0
 580 720 730 600 730 350 c 0
 730 100 580 -20 390 -20 c 0
 200 -20 50 100 50 350 c 0
160 350 m 0
 160 110 260 0 390 0 c 0
 520 -0 620 110 620 350 c 0
 620 590 520 690 390 690 c 0
 260 690 160 590 160 350 c 0
480 -30 m 0
 452 76 430 125 360 125 c 3
 320 125 265 116 230 55 c 1
 230 65 l 1
 250 100 300 155 370 155 c 3
 470 155 544 95 580 -40 c 0
 596 -98 635 -140 680 -140 c 3
 710 -140 745 -120 765 -85 c 1
 770 -90 l 1
 753 -137 710 -180 660 -180 c 3
 590 -180 508 -136 480 -30 c 0
EndSplineSet
Validated: 5
EndChar

StartChar: O
Encoding: 79 79 73
Width: 780
VWidth: 0
Flags: W
HStem: -20 20<327.609 452.391> 690 30<311.125 468.875>
VStem: 50 110<203.455 495.849> 620 110<203.455 495.849>
LayerCount: 2
Fore
SplineSet
160 350 m 0
 160 110 260 0 390 0 c 0
 520 -0 620 110 620 350 c 0
 620 590 520 690 390 690 c 0
 260 690 160 590 160 350 c 0
50 350 m 0
 50 600 200 720 390 720 c 0
 580 720 730 600 730 350 c 0
 730 100 580 -20 390 -20 c 0
 200 -20 50 100 50 350 c 0
EndSplineSet
Validated: 1
EndChar

StartChar: P
Encoding: 80 80 74
Width: 600
VWidth: 0
Flags: W
HStem: 0 25<50 130 230 310> 330 30<230 388.462> 675 25<50 130 230 358.675>
VStem: 130 100<25 330 360 670> 470 100<436.274 598.135>
LayerCount: 2
Fore
SplineSet
230 360 m 1
 336 360 l 2
 406 360 470 430 470 520 c 0
 470 610 402 670 302 670 c 2
 230 670 l 1
 230 360 l 1
230 330 m 1
 230 25 l 1
 310 25 l 1
 310 0 l 1
 50 0 l 1
 50 25 l 1
 130 25 l 1
 130 675 l 1
 50 675 l 1
 50 700 l 1
 340 700 l 2
 440 700 570 655 570 515 c 0
 570 375 440 330 340 330 c 2
 230 330 l 1
EndSplineSet
EndChar

StartChar: S
Encoding: 83 83 75
Width: 560
VWidth: 0
Flags: W
HStem: -20 25<203.053 327.87> 0 21G<60 73.5> 680 20G<448.5 460> 690 30<217.87 345.785>
VStem: 60 20<81.4618 184> 60 9<0 14.3951> 69 90<503.567 629.237> 420 90<82.5422 234.243> 440 20<522 614.869> 447.406 12.5938<528.778 616.433 667.029 700>
LayerCount: 2
Fore
SplineSet
80 184 m 5x48
 80 103 87 80 110 80 c 1
 87 66 78 30 69 0 c 1
 60 0 l 1x44
 60 184 l 5
 80 184 l 5x48
440 522 m 2x2080
 445.212890625 522 447.40625 528.778320312 447.40625 538.970703125 c 0
 447.40625 569.834960938 427.290039062 630 410 630 c 1
 432 642 447 671 450 700 c 1
 460 700 l 1x2040
 460 522 l 1
 440 522 l 2x2080
60 184 m 5x99
 80 184 l 5
 80 44 210 5 270 5 c 3
 350 5 420 70 420 150 c 3x99
 420 220 397 276 275 320 c 0
 125 375 69 450 69 550 c 3
 69 640 149 720 259 720 c 3
 359 720 460 672 460 522 c 1
 440 522 l 1
 440 652 345 690 280 690 c 3
 200 690 159 635 159 570 c 3x9280
 159 515 190 471 275 440 c 0
 416 389 510 330 510 170 c 3
 510 50 410 -20 290 -20 c 3
 180 -20 61 33 60 184 c 5x99
EndSplineSet
EndChar

StartChar: T
Encoding: 84 84 76
Width: 680
VWidth: 0
Flags: W
HStem: 0 25<180 490> 675 25<160 640>
VStem: 0 15<510 530.31> 285 100<0 700> 655 15<510 530.31>
CounterMasks: 1 38
LayerCount: 2
Fore
SplineSet
510 675 m 1
 640 700 l 25
 670 510 l 5
 655 510 l 5
 623 622 582 675 510 675 c 1
160 675 m 1
 88 675 47 622 15 510 c 1
 0 510 l 1
 30 700 l 25
 160 675 l 1
385 0 m 1
 285 0 l 1
 285 700 l 1
 385 700 l 1
 385 0 l 1
30 700 m 1
 640 700 l 1
 640 675 l 1
 30 675 l 1
 30 700 l 1
180 25 m 1
 490 25 l 1
 490 0 l 1
 180 0 l 1
 180 25 l 1
EndSplineSet
EndChar

StartChar: U
Encoding: 85 85 77
Width: 740
VWidth: 0
Flags: W
HStem: -20 30<302.499 472.32> 675 25<30 290 530 720>
VStem: 110 100<123.841 700> 610 30<149.219 700>
LayerCount: 2
Fore
SplineSet
720 675 m 1
 640 675 l 1
 610 675 l 1
 530 675 l 1
 530 700 l 1
 720 700 l 1
 720 675 l 1
290 675 m 1
 210 675 l 1
 110 675 l 1
 30 675 l 1
 30 700 l 1
 290 700 l 1
 290 675 l 1
110 250 m 2
 110 700 l 1
 210 700 l 1
 210 250 l 2
 210 100 250 10 380 10 c 0
 530 10 610 100 610 250 c 2
 610 700 l 1
 640 700 l 1
 640 250 l 2
 640 80 560 -20 380 -20 c 0
 200 -20 110 80 110 250 c 2
EndSplineSet
EndChar

StartChar: R
Encoding: 82 82 78
Width: 710
VWidth: 0
Flags: W
HStem: 0 25<40 120 220 300 633.409 690> 330 30<220 260 326 378.462> 675 25<40 120 220 348.675>
VStem: 120 100<25 330 360 670> 460 100<436.274 598.135>
LayerCount: 2
Fore
SplineSet
220 360 m 1
 326 360 l 2
 396 360 460 430 460 520 c 0
 460 610 392 670 292 670 c 2
 220 670 l 1
 220 360 l 1
220 330 m 1
 220 25 l 1
 300 25 l 1
 300 0 l 1
 40 0 l 1
 40 25 l 1
 120 25 l 1
 120 675 l 1
 40 675 l 1
 40 700 l 1
 330 700 l 2
 430 700 560 655 560 515 c 0
 560 375 430 330 330 330 c 2
 220 330 l 1
540 0 m 1
 260 360 l 1
 290 360 l 1
 359 320 424 257 484 190 c 2
 630 40 l 18
 648 22 669 20 690 20 c 1
 690 0 l 1
 540 0 l 1
EndSplineSet
EndChar

StartChar: L
Encoding: 76 76 79
Width: 620
VWidth: 0
Flags: W
HStem: 0 25<40 569> 680 20<40 300>
VStem: 120 100<25 700> 585 15<169.69 190>
LayerCount: 2
Fore
SplineSet
300 680 m 1
 220 680 l 1
 120 680 l 1
 40 680 l 1
 40 700 l 1
 300 700 l 1
 300 680 l 1
40 25 m 1
 120 25 l 1
 220 25 l 1
 300 20 l 1
 300 0 l 1
 40 0 l 1
 40 25 l 1
220 25 m 1
 569 25 l 1
 569 0 l 1
 120 0 l 1
 120 700 l 1
 220 700 l 1
 220 25 l 1
430 25 m 5
 502 25 553 78 585 190 c 1
 600 190 l 1
 569 0 l 25
 430 25 l 5
EndSplineSet
EndChar

StartChar: M
Encoding: 77 77 80
Width: 950
VWidth: 0
Flags: W
HStem: 0 25<20 210 650 910> 675 25<20 100 829 910>
VStem: 100 30<0 675> 730 99<0 675>
LayerCount: 2
Fore
SplineSet
100 675 m 1
 20 675 l 1
 20 700 l 1
 100 700 l 1
 100 675 l 1
20 25 m 1
 210 25 l 1
 210 0 l 1
 20 0 l 1
 20 25 l 1
100 700 m 17
 130 700 l 9
 130 0 l 1
 100 0 l 1
 100 700 l 17
730 0 m 9
 730 700 l 1
 829 700 l 1
 829 0 l 17
 730 0 l 9
461 110 m 1
 730 700 l 1
 770 700 l 1
 451 0 l 1
 421 0 l 1
 100 700 l 1
 211 700 l 1
 461 110 l 1
650 25 m 1
 910 25 l 1
 910 0 l 1
 650 0 l 1
 650 25 l 1
910 675 m 1
 829 675 l 1
 829 700 l 1
 910 700 l 1
 910 675 l 1
EndSplineSet
Validated: 5
EndChar

StartChar: N
Encoding: 78 78 81
Width: 740
VWidth: 0
Flags: W
HStem: 0 25<40 230> 675 25<40 200 530 720>
VStem: 610 30<0 700>
LayerCount: 2
Fore
SplineSet
200 675 m 1
 40 675 l 1
 40 700 l 1
 200 700 l 1
 200 675 l 1
640 0 m 1
 610 0 l 1
 121 700 l 1
 245 700 l 1
 640 135 l 1
 640 0 l 1
610 0 m 9
 610 700 l 1
 640 700 l 1
 640 0 l 17
 610 0 l 9
120 700 m 17
 150 700 l 9
 150 0 l 1
 120 0 l 1
 120 700 l 17
40 25 m 1
 230 25 l 1
 230 0 l 1
 40 0 l 1
 40 25 l 1
530 675 m 1
 530 700 l 1
 720 700 l 1
 720 675 l 1
 530 675 l 1
EndSplineSet
EndChar

StartChar: J
Encoding: 74 74 82
Width: 500
VWidth: 0
Flags: W
HStem: -20 25<181.97 273.309> 675 25<225 490>
VStem: 30 110<48.6181 158.265> 310 100<52.8678 700>
LayerCount: 2
Fore
SplineSet
225 675 m 1
 225 700 l 1
 490 700 l 1
 490 675 l 1
 410 675 l 1
 310 675 l 1
 225 675 l 1
410 125 m 18
 410 35 329 -20 235 -20 c 0
 142 -20 30 19 30 109 c 0
 30 139 45 170 85 170 c 0
 125 170 140 136 140 99 c 0
 140 39 175 5 235 5 c 0
 285 5 310 50 310 130 c 10
 310 700 l 25
 410 700 l 25
 410 125 l 18
EndSplineSet
EndChar

StartChar: K
Encoding: 75 75 83
Width: 710
VWidth: 0
Flags: W
HStem: 0 25<50 310 460 720> 675 25<50 310 440 595 631 691>
VStem: 130 100<0 700>
LayerCount: 2
Fore
SplineSet
691 675 m 1
 440 675 l 1
 440 700 l 1
 691 700 l 1
 691 675 l 1
720 0 m 1
 460 0 l 1
 460 25 l 1
 720 25 l 1
 720 0 l 1
310 0 m 1
 50 0 l 1
 50 25 l 1
 310 25 l 1
 310 0 l 1
230 0 m 1
 130 0 l 1
 130 700 l 1
 230 700 l 1
 230 0 l 1
538 0 m 1
 195 370 l 1
 230 370 l 1
 595 700 l 1
 631 700 l 25
 302 395 l 1
 666 0 l 1
 538 0 l 1
310 675 m 1
 50 675 l 1
 50 700 l 1
 310 700 l 1
 310 675 l 1
EndSplineSet
EndChar

StartChar: V
Encoding: 86 86 84
Width: 740
VWidth: 0
Flags: W
HStem: 0 21G<338.457 385.429> 675 25<-10 150 170 250 490 670 672 750>
LayerCount: 2
Fore
SplineSet
750 675 m 1
 670 675 l 1
 570 675 l 1
 490 675 l 1
 490 700 l 1
 750 700 l 1
 750 675 l 1
250 675 m 1
 170 675 l 1
 70 675 l 1
 -10 675 l 1
 -10 700 l 1
 250 700 l 1
 250 675 l 1
672 700 m 9
 377 0 l 1
 347 0 l 1
 48 700 l 17
 150 700 l 9
 391 119 l 1
 636 700 l 17
 672 700 l 9
EndSplineSet
Validated: 5
EndChar

StartChar: W
Encoding: 87 87 85
Width: 1110
VWidth: 0
Flags: W
HStem: 0 21G<368.457 415.429 688.457 735.429> 675 25<20 180 200 280 340 500 520 700 702 780 840 1020 1022 1100>
LayerCount: 2
Fore
SplineSet
1100 675 m 1
 1020 675 l 1
 920 675 l 1
 840 675 l 1
 840 700 l 1
 1100 700 l 1
 1100 675 l 1
600 675 m 1
 520 675 l 1
 420 675 l 1
 340 675 l 1
 340 700 l 1
 600 700 l 1
 600 675 l 1
1022 700 m 9
 727 0 l 1
 697 0 l 1
 398 700 l 17
 500 700 l 9
 741 119 l 1
 986 700 l 17
 1022 700 l 9
780 675 m 1
 700 675 l 1
 600 675 l 1
 520 675 l 1
 520 700 l 1
 780 700 l 1
 780 675 l 1
280 675 m 1
 200 675 l 1
 100 675 l 1
 20 675 l 1
 20 700 l 1
 280 700 l 1
 280 675 l 1
702 700 m 9
 407 0 l 1
 377 0 l 1
 78 700 l 17
 180 700 l 9
 421 119 l 1
 666 700 l 17
 702 700 l 9
EndSplineSet
EndChar

StartChar: Y
Encoding: 89 89 86
Width: 645
VWidth: 0
Flags: W
HStem: 0 50<265 365> 0 30<165 263.484 366.516 465> 675 25<-10 155 170 250 395 575 578 655>
VStem: 265 100<0 418>
LayerCount: 2
Fore
SplineSet
655 675 m 1x30
 575 675 l 1
 475 675 l 1
 395 675 l 1
 395 700 l 1
 655 700 l 1
 655 675 l 1x30
250 675 m 1
 170 675 l 1
 70 675 l 1
 -10 675 l 1
 -10 700 l 1
 250 700 l 1
 250 675 l 1
165 30 m 1x70
 205 30 265 30 265 50 c 1
 365 50 l 1xb0
 365 30 425 30 465 30 c 1
 465 0 l 1
 165 0 l 1
 165 30 l 1x70
265 418 m 25
 365 418 l 25
 365 0 l 25
 265 0 l 25
 265 418 l 25
578 700 m 25
 310 320 l 1
 35 700 l 25
 155 700 l 25
 350 430 l 1
 542 700 l 1
 578 700 l 25
EndSplineSet
EndChar

StartChar: Z
Encoding: 90 90 87
Width: 660
VWidth: 0
Flags: W
HStem: 0 25<170 599> 675 25<70 480>
VStem: 70 20<535 591.248> 620 20<164.927 191.75>
LayerCount: 2
Fore
SplineSet
465 25 m 1
 537 25 588 83 620 195 c 1
 640 190 l 1
 599 0 l 25
 465 25 l 1
280 675 m 1
 100 675 113 663 90 535 c 9
 70 535 l 1
 70 700 l 25
 280 675 l 1
40 0 m 1
 40 25 l 1
 480 675 l 1
 70 675 l 1
 70 700 l 1
 610 700 l 1
 610 675 l 1
 170 25 l 1
 599 25 l 1
 599 0 l 1
 40 0 l 1
EndSplineSet
EndChar

StartChar: X
Encoding: 88 88 88
Width: 715
VWidth: 0
Flags: W
HStem: 0 25<20 85 130 224 436 529 650 715> 675 25<40 107 227 319 479 568 613 683>
LayerCount: 2
Fore
SplineSet
529 25 m 25
 344 311 l 1
 130 25 l 25
 224 25 l 17
 224 0 l 1
 20 0 l 1
 20 25 l 1
 85 25 l 9
 322 344 l 1
 107 675 l 17
 40 675 l 1
 40 700 l 1
 319 700 l 1
 319 675 l 1
 227 675 l 9
 386 429 l 1
 568 675 l 1
 479 675 l 1
 479 700 l 1
 683 700 l 1
 683 675 l 1
 613 675 l 9
 408 395 l 1
 650 25 l 17
 715 25 l 1
 715 0 l 1
 436 0 l 1
 436 25 l 1
 529 25 l 25
EndSplineSet
EndChar

StartChar: braceleft
Encoding: 123 123 89
Width: 390
VWidth: 900
Flags: W
HStem: -120 25<271.049 350> 715 25<268.061 350>
VStem: 140 100<-51.0131 197.391 425.862 683.338>
LayerCount: 2
Fore
SplineSet
40 295 m 1
 40 325 l 1
 138 342 140 510 140 600 c 0
 140 670 180 740 250 740 c 2
 350 740 l 1
 350 715 l 1
 300 715 l 2
 250 715 240 655 240 565 c 0
 240 475 218 331 100 310 c 1
 208 291 240 165 240 75 c 0
 240 -15 250 -95 300 -95 c 2
 350 -95 l 1
 350 -120 l 1
 250 -120 l 2
 180 -120 140 -30 140 40 c 0
 140 130 129 279 40 295 c 1
EndSplineSet
Validated: 1
EndChar

StartChar: bar
Encoding: 124 124 90
Width: 240
VWidth: 0
Flags: W
VStem: 90 60<-180 780>
LayerCount: 2
Fore
SplineSet
90 -180 m 1
 90 780 l 1
 150 780 l 1
 150 -180 l 1
 90 -180 l 1
EndSplineSet
Validated: 1
EndChar

StartChar: braceright
Encoding: 125 125 91
Width: 390
VWidth: 900
Flags: W
HStem: -120 25<40 118.951> 715 25<40 121.939>
VStem: 150 100<-51.0131 197.391 425.862 683.338>
LayerCount: 2
Fore
SplineSet
350 295 m 1
 261 279 250 130 250 40 c 0
 250 -30 210 -120 140 -120 c 2
 40 -120 l 1
 40 -95 l 1
 90 -95 l 2
 140 -95 150 -15 150 75 c 0
 150 165 182 291 290 310 c 1
 172 331 150 475 150 565 c 0
 150 655 140 715 90 715 c 2
 40 715 l 1
 40 740 l 1
 140 740 l 2
 210 740 250 670 250 600 c 0
 250 510 252 342 350 325 c 1
 350 295 l 1
EndSplineSet
Validated: 1
EndChar

StartChar: asciitilde
Encoding: 126 126 92
Width: 440
VWidth: 0
Flags: W
HStem: 225 90<241.503 342.941> 290 90<98.9544 198.497>
LayerCount: 2
Fore
SplineSet
40 230 m 9x40
 40 260 l 17
 57 307 100 380 140 380 c 3x40
 200 380 230 315 300 315 c 3
 340 315 383 318 400 365 c 9
 400 335 l 17
 383 288 340 225 300 225 c 3x80
 240 225 210 290 140 290 c 3
 100 290 65 273 40 230 c 9x40
EndSplineSet
Validated: 1
EndChar

StartChar: numbersign
Encoding: 35 35 93
Width: 680
VWidth: 0
Flags: W
HStem: 0 21G<170 211.743 400 441.743> 190 40<40 610> 480 40<70 640> 680 20G<229.257 271 459.257 501>
LayerCount: 2
Fore
SplineSet
40 190 m 25
 40 230 l 25
 610 230 l 25
 610 190 l 25
 40 190 l 25
70 480 m 25
 70 520 l 25
 640 520 l 25
 640 480 l 25
 70 480 l 25
400 0 m 25
 461 700 l 25
 501 700 l 25
 440 0 l 25
 400 0 l 25
170 0 m 25
 231 700 l 25
 271 700 l 25
 210 0 l 25
 170 0 l 25
EndSplineSet
Validated: 5
EndChar

StartChar: dollar
Encoding: 36 36 94
Width: 580
VWidth: 0
Flags: W
HStem: -20 15<238.554 346.529> 705 15<243.709 332.344>
VStem: 50 90<68.2936 182.386> 70 75<484.877 614.861> 270 30<-80 522> 280 30<178 780> 420 90<517.847 635.625> 460 70<79.8184 222.56>
LayerCount: 2
Fore
SplineSet
280 780 m 25xc4
 310 780 l 25xc4
 300 -80 l 1
 270 -80 l 1xc8
 280 780 l 25xc4
50 140 m 11xe1
 50 166 69 190 95 190 c 27
 121 190 140 166 140 140 c 3
 140 40 210 -5 290 -5 c 3
 400 -5 460 70 460 150 c 3xe1
 460 220 431 252 290 303 c 0
 130 361 70 430 70 530 c 3
 70 620 140 720 290 720 c 3
 390 720 510 680 510 560 c 3
 510 535 490 510 465 510 c 3
 440 510 420 535 420 560 c 3
 420 640 370 705 290 705 c 3
 180 705 145 610 145 550 c 3xd2
 145 480 187 453 290 415 c 0
 450 357 530 290 530 170 c 3
 530 40 430 -20 290 -20 c 3
 180 -20 50 20 50 140 c 11xe1
EndSplineSet
Validated: 5
EndChar

StartChar: percent
Encoding: 37 37 95
Width: 760
VWidth: 0
Flags: W
HStem: -12 30<600.962 659.038> 0 21G<200 260.278> 258 30<600.962 659.038> 420 30<160.962 219.038> 690 30<160.962 219.038>
VStem: 60 75<485.699 654.301> 245 75<485.699 654.301> 500 75<53.6988 222.301> 685 75<53.6988 222.301>
DStem2: 200 0 250 0 0.457069 0.889431<22.8534 809.506>
LayerCount: 2
Fore
SplineSet
135 570 m 0x3f80
 135 510 150 450 190 450 c 0
 230 450 245 510 245 570 c 0
 245 630 230 690 190 690 c 0
 150 690 135 630 135 570 c 0x3f80
60 570 m 0
 60 660 120 720 190 720 c 0
 260 720 320 660 320 570 c 0
 320 480 260 420 190 420 c 0
 120 420 60 480 60 570 c 0
200 0 m 1x7f80
 570 720 l 1
 620 720 l 1
 250 0 l 1
 200 0 l 1x7f80
500 138 m 0
 500 228 560 288 630 288 c 0
 700 288 760 228 760 138 c 0
 760 48 700 -12 630 -12 c 0xbf80
 560 -12 500 48 500 138 c 0
630 258 m 0
 590 258 575 198 575 138 c 0
 575 78 590 18 630 18 c 0
 670 18 685 78 685 138 c 0
 685 198 670 258 630 258 c 0
EndSplineSet
Validated: 1
EndChar

StartChar: sterling
Encoding: 163 163 97
Width: 580
VWidth: 0
Flags: W
HStem: 0 30<130 500> 345 25<40 360> 680 20G<438 450> 700 20<263.735 345.007>
VStem: 90 90<58.481 604.426> 440 10<600 611.916> 485 15<127.227 170>
LayerCount: 2
Fore
SplineSet
290 30 m 1xce
 470 30 462.42578125 41.974609375 485 170 c 9
 500 170 l 1
 500 0 l 25
 290 30 l 1xce
40 370 m 1
 360 370 l 29
 360 345 l 29
 40 345 l 1
 40 370 l 1
500 0 m 1
 20 0 l 1
 20 10 l 1
 70 43 90 70 90 140 c 2
 90 440 l 2
 90 595 120 720 280 720 c 0xde
 340 720 398 690 420 690 c 1
 429 690 436 695 440 700 c 1
 450 700 l 1xee
 450 600 l 1
 440 600 l 1
 432 633 380 700 300 700 c 0xde
 210 700 180 577 180 450 c 2
 180 140 l 2
 180 86 167 58 130 30 c 1
 500 30 l 1
 500 0 l 1
EndSplineSet
Validated: 5
EndChar

StartChar: currency
Encoding: 164 164 98
Width: 300
VWidth: 0
Flags: W
HStem: 530 40<112.064 189.301> 670 40<110.699 190.015>
VStem: 60 40<590.469 649.046> 200 40<590.954 648.552>
LayerCount: 2
Fore
SplineSet
116 555 m 29
 86 525 l 29
 50 559 l 29
 86 595 l 29
 116 555 l 29
220 649 m 29
 180 679 l 29
 216 715 l 29
 250 679 l 29
 220 649 l 29
184 556 m 29
 214 596 l 29
 250 560 l 29
 214 526 l 29
 184 556 l 29
80 650 m 29
 50 680 l 29
 84 716 l 29
 120 680 l 29
 80 650 l 29
60 620 m 28
 60 670 100 710 150 710 c 28
 200 710 240 670 240 620 c 28
 240 570 200 530 150 530 c 28
 100 530 60 570 60 620 c 28
100 620 m 28
 100 592 122 570 150 570 c 28
 178 570 200 592 200 620 c 28
 200 648 178 670 150 670 c 28
 122 670 100 648 100 620 c 28
EndSplineSet
Validated: 5
EndChar

StartChar: yen
Encoding: 165 165 99
Width: 685
VWidth: 0
Flags: W
HStem: 0 50<285 385> 0 30<185 283.484 386.516 485> 319 25<100 570> 435 25<100 311 406 570> 675 25<10 175 190 270 415 595 598 675>
VStem: 285 100<0 418>
LayerCount: 2
Fore
SplineSet
406 460 m 1x3c
 570 460 l 1
 570 435 l 1
 392 435 l 1
 406 460 l 1x3c
319 435 m 1
 100 435 l 1
 100 460 l 1
 311 460 l 1
 319 435 l 1
570 345 m 1
 570 320 l 1
 100 319 l 1
 100 344 l 1
 570 345 l 1
675 675 m 1
 595 675 l 1
 495 675 l 1
 415 675 l 1
 415 700 l 1
 675 700 l 1
 675 675 l 1
270 675 m 1
 190 675 l 1
 90 675 l 1
 10 675 l 1
 10 700 l 1
 270 700 l 1
 270 675 l 1
185 30 m 1x7c
 225 30 285 30 285 50 c 1
 385 50 l 1xbc
 385 30 445 30 485 30 c 1
 485 0 l 1
 185 0 l 1
 185 30 l 1x7c
285 418 m 25
 385 418 l 25
 385 0 l 25
 285 0 l 25
 285 418 l 25
598 700 m 25
 330 320 l 1
 55 700 l 25
 175 700 l 25
 370 430 l 1
 562 700 l 1
 598 700 l 25
EndSplineSet
Validated: 5
EndChar

StartChar: brokenbar
Encoding: 166 166 100
Width: 240
VWidth: 0
Flags: W
VStem: 90 60<-180 250 390 780>
LayerCount: 2
Fore
SplineSet
90 390 m 1
 90 780 l 1
 150 780 l 1
 150 390 l 1
 90 390 l 1
150 250 m 1
 150 -180 l 1
 90 -180 l 1
 90 250 l 1
 150 250 l 1
EndSplineSet
Validated: 1
EndChar

StartChar: dieresis
Encoding: 168 168 101
Width: 440
VWidth: 0
Flags: W
HStem: 600 120<63.7454 156.255 283.745 376.255>
VStem: 50 120<613.745 706.255> 270 120<613.745 706.255>
LayerCount: 2
Fore
SplineSet
270 660 m 28
 270 693 297 720 330 720 c 28
 363 720 390 693 390 660 c 28
 390 627 363 600 330 600 c 28
 297 600 270 627 270 660 c 28
50 660 m 28
 50 693 77 720 110 720 c 28
 143 720 170 693 170 660 c 28
 170 627 143 600 110 600 c 28
 77 600 50 627 50 660 c 28
EndSplineSet
Validated: 1
EndChar

StartChar: copyright
Encoding: 169 169 102
Width: 820
VWidth: 0
Flags: W
HStem: -20 20<335.864 484.136> 111 20<372.98 473.855> 550 20<372.98 473.858> 680 20<335.864 484.136>
VStem: 50 30<240.477 439.523> 200 70<230.108 450.135> 570 10<121 133.301 547.699 560> 740 30<240.477 439.523>
LayerCount: 2
Fore
SplineSet
555 241 m 9
 580 241 l 25
 580 121 l 25
 570 121 l 17
 562.05859375 143.896484375 556 153 537 155 c 1
 551.579101562 183.666992188 565 211 555 241 c 9
555 440 m 17
 565 470 551.578745331 497.333333333 537 526 c 1
 556 528 562.059075275 537.103220942 570 560 c 9
 580 560 l 25
 580 440 l 25
 555 440 l 17
50 340 m 0
 50 540 210 700 410 700 c 0
 610 700 770 540 770 340 c 0
 770 140 610 -20 410 -20 c 0
 210 -20 50 140 50 340 c 0
80 340 m 24
 80 155 225 0 410 0 c 24
 595 0 740 155 740 340 c 24
 740 525 595 680 410 680 c 24
 225 680 80 525 80 340 c 24
200 340 m 3
 200 490 290 570 420 570 c 3
 500 570 564.372070312 528.6328125 580 440 c 1
 555 440 l 1
 542.844726562 508.936523438 490 550 420 550 c 3
 330 550 270 450 270 340 c 3
 270 230 330 131 420 131 c 3
 490 131 542.806640625 171.846679688 555 241 c 1
 580 241 l 1
 564.372070312 152.3671875 500 111 420 111 c 3
 290 111 200 190 200 340 c 3
EndSplineSet
Validated: 37
EndChar

StartChar: guillemotleft
Encoding: 171 171 103
Width: 570
VWidth: 0
Flags: W
LayerCount: 2
Fore
SplineSet
260 340 m 1
 260 380 l 1
 490 540 l 1
 490 530 l 1
 310 360 l 1
 490 190 l 1
 490 180 l 1
 260 340 l 1
80 340 m 1
 80 380 l 1
 310 540 l 1
 310 530 l 1
 130 360 l 1
 310 190 l 1
 310 180 l 1
 80 340 l 1
EndSplineSet
Validated: 1
EndChar

StartChar: registered
Encoding: 174 174 104
Width: 820
VWidth: 0
Flags: W
HStem: -20 20<335.729 484.271> 111 33.5<262 329> 111 20.0996<195 260.984 330.016 396 603.294 643.9> 332.1 20.1006<329 433.292> 559.9 20.0996<195 260.984 329 427.065> 680 20<335.729 484.271>
VStem: 50 25<252.796 427.204> 262 67<111 332.1 352.2 557.891> 489.8 67<392.009 521.213> 745 25<252.796 427.204>
LayerCount: 2
Fore
SplineSet
543.400390625 111 m 1xbfc0
 349.099609375 352.200195312 l 1
 375.900390625 352.200195312 l 1
 422.319335938 325.400390625 458.209960938 289.244140625 499.1796875 245 c 2
 573.549804688 164.599609375 l 2
 592.56640625 145.715820312 610.400390625 131.099609375 643.900390625 131.099609375 c 1
 643.900390625 111 l 1
 543.400390625 111 l 1xbfc0
195 559.900390625 m 1
 195 580 l 1
 401.360351562 580 l 2
 468.360351562 580 556.799804688 549.849609375 556.799804688 456.049804688 c 0
 556.799804688 362.25 467.690429688 332.099609375 400.690429688 332.099609375 c 2
 329 332.099609375 l 1
 329 111 l 1
 262 111 l 1xdfc0
 262 546.5 l 2
 262 559.900390625 221.799804688 559.900390625 195 559.900390625 c 1
195 131.099609375 m 1xbfc0
 221.799804688 131.099609375 262 131.099609375 262 144.5 c 1
 329 144.5 l 1xdfc0
 329 131.099609375 369.200195312 131.099609375 396 131.099609375 c 1
 396 111 l 1
 195 111 l 1
 195 131.099609375 l 1xbfc0
329 352.200195312 m 1
 398.009765625 352.200195312 l 2
 444.91015625 352.200195312 489.799804688 399.099609375 489.799804688 459.400390625 c 0
 489.799804688 519.700195312 442.900390625 559.900390625 375.900390625 559.900390625 c 2
 329 559.900390625 l 9
 329 352.200195312 l 1
50 340 m 0
 50 540 210 700 410 700 c 0
 610 700 770 540 770 340 c 0
 770 140 610 -20 410 -20 c 0
 210 -20 50 140 50 340 c 0
75 340 m 24
 75 155 225 0 410 0 c 24
 595 0 745 155 745 340 c 28
 745 525 595 680 410 680 c 24
 225 680 75 525 75 340 c 24
EndSplineSet
Validated: 5
EndChar

StartChar: macron
Encoding: 175 175 105
Width: 230
VWidth: 0
Flags: W
HStem: 730 30<0 230>
VStem: 0 230<730 760>
LayerCount: 2
Fore
SplineSet
0 760 m 1
 230 760 l 1
 230 730 l 1
 0 730 l 1
 0 760 l 1
EndSplineSet
Validated: 1
EndChar

StartChar: degree
Encoding: 176 176 106
Width: 300
VWidth: 0
Flags: W
HStem: 580 40<115.604 184.396> 700 40<115.604 184.396>
VStem: 70 40<625.604 694.396> 190 40<625.604 694.396>
LayerCount: 2
Fore
SplineSet
150 700 m 27
 128 700 110 682 110 660 c 27
 110 638 128 620 150 620 c 27
 172 620 190 638 190 660 c 27
 190 682 172 700 150 700 c 27
70 660 m 27
 70 704 106 740 150 740 c 27
 194 740 230 704 230 660 c 27
 230 616 194 580 150 580 c 27
 106 580 70 616 70 660 c 27
EndSplineSet
Validated: 1
EndChar

StartChar: plusminus
Encoding: 177 177 107
Width: 440
VWidth: -50
Flags: W
HStem: 55 30<60 380> 300 30<40 400>
VStem: 205 30<135 495>
LayerCount: 2
Fore
SplineSet
60 55 m 1
 60 85 l 1
 380 85 l 1
 380 55 l 1
 60 55 l 1
40 300 m 1
 40 330 l 1
 400 330 l 1
 400 300 l 1
 40 300 l 1
235 495 m 1
 235 135 l 1
 205 135 l 1
 205 495 l 1
 235 495 l 1
EndSplineSet
Validated: 5
EndChar

StartChar: mu
Encoding: 181 181 108
Width: 610
VWidth: 0
Flags: W
HStem: -20 20<264.378 333.757> 15 10<575.959 600> 425 10<10 34.0411 340 364.041> 450 20G<85 185 415 515>
VStem: 95 90<174.419 411.284> 95 80<-213.936 -0.138885> 425 90<38.716 411.284>
LayerCount: 2
Fore
SplineSet
185 180 m 2xfa
 185 60 235 0 315 0 c 0
 395 0 439.217773438 79.427734375 470 164 c 1
 470 123 l 1
 431.96484375 41.4326171875 365 -20 275 -20 c 0
 165 -20 95 30 95 180 c 2
 95 380 l 18
 95 415 44 425 10 425 c 1
 10 435 l 1
 185 470 l 1
 185 180 l 2xfa
515 70 m 18
 515 35 566 25 600 25 c 1
 600 15 l 1
 425 -20 l 1
 425 380 l 18
 425 415 374 425 340 425 c 1
 340 435 l 1
 515 470 l 1
 515 70 l 18
110 195 m 5
 138 113 175 -100 175 -180 c 0
 175 -205 155 -220 135 -220 c 0
 115 -220 95 -196.52347688 95 -180 c 2xf6
 95 196 l 17
 110 195 l 5
EndSplineSet
Validated: 5
EndChar

StartChar: ordfeminine
Encoding: 170 170 109
Width: 345
VWidth: 0
Flags: W
HStem: 390 16<128.358 173.012 260 307.59> 570 9<175.248 218> 707 12<131.079 185.479>
VStem: 27 71<420.249 528.49> 41 68<639.861 697.281> 218 68<423.967 570 579 691.705>
LayerCount: 2
Fore
SplineSet
160 707 m 0xf4
 126 707 113 691 109 668 c 0
 104 645 90 638 75 638 c 0
 60 638 41 645 41 665 c 0xec
 41 702 102 719 167 719 c 0
 232 719 286 703 286 636 c 2
 286 465 l 2
 286 425 293 412 306 412 c 0
 316 412 323 420 332 445 c 1
 339 442 l 1
 322 397 303 390 275 390 c 0
 245 390 224 409 219 435 c 1
 194 406 170 390 134 390 c 0
 77 390 27 417 27 471 c 0
 27 545 105 579 212 579 c 2
 218 579 l 1
 218 637 l 2
 218 684 194 707 160 707 c 0xf4
218 446 m 1
 218 570 l 1
 148 570 98 543 98 478 c 0xf4
 98 426 130 406 154 406 c 0
 178 406 197 421 218 446 c 1
EndSplineSet
Validated: 1
EndChar

StartChar: logicalnot
Encoding: 172 172 110
Width: 470
VWidth: 50
Flags: W
HStem: 130 160<290 380> 240 50<50 290>
VStem: 290 90<130 240>
LayerCount: 2
Fore
SplineSet
50 240 m 5x60
 50 290 l 1x60
 380 290 l 1
 380 130 l 1
 290 130 l 1xa0
 290 240 l 5
 50 240 l 5x60
EndSplineSet
Validated: 1
EndChar

StartChar: paragraph
Encoding: 182 182 112
Width: 500
VWidth: 0
Flags: W
HStem: 540 10<300 390 410 490>
VStem: 50 250<277.031 452.969> 280 20<-200 180> 390 20<-200 540>
LayerCount: 2
Fore
SplineSet
280 550 m 2xb0
 490 550 l 1
 490 540 l 1
 410 540 l 1
 410 -200 l 1
 390 -200 l 1
 390 540 l 1
 300 540 l 1
 300 -200 l 1
 280 -200 l 1
 280 180 l 1xb0
 180 180 50 225 50 365 c 0xd0
 50 505 180 550 280 550 c 2xb0
EndSplineSet
Validated: 1
EndChar

StartChar: periodcentered
Encoding: 183 183 113
Width: 300
VWidth: 0
Flags: W
HStem: 300 120<103.745 196.255>
VStem: 90 120<313.745 406.255>
LayerCount: 2
Fore
SplineSet
90 360 m 24
 90 393 117 420 150 420 c 24
 183 420 210 393 210 360 c 24
 210 327 183 300 150 300 c 24
 117 300 90 327 90 360 c 24
EndSplineSet
Validated: 1
EndChar

StartChar: cedilla
Encoding: 184 184 114
Width: 270
Flags: W
HStem: -210 10<46.5 61.7803> -20 20G<106.667 124>
VStem: 140 90<-160.141 -74.5759>
LayerCount: 2
Fore
SplineSet
45 -200 m 1
 123.784179688 -186.108398438 140 -145 140 -120 c 0
 140 -95 119.543945312 -65.208984375 90 -60 c 1
 115 0 l 1
 124 0 l 1
 115 -30 l 1
 174.176757812 -39.9033203125 230 -60 230 -110 c 0
 230 -170 178.025007892 -187.425736903 50 -210 c 1
 45 -200 l 1
EndSplineSet
Validated: 1
EndChar

StartChar: acute
Encoding: 180 180 115
Width: 160
VWidth: 0
Flags: W
HStem: 515 215
VStem: 18 124
LayerCount: 2
Fore
SplineSet
142 695 m 0
 142 646 97 594 76 570 c 2
 28 515 l 1
 18 519 l 1
 30 591 l 2
 33 611 46 656 58 683 c 0
 69 706 88 730 110 730 c 4
 132 730 142 713 142 695 c 0
EndSplineSet
Validated: 1
EndChar

StartChar: ordmasculine
Encoding: 186 186 116
Width: 300
VWidth: 0
Flags: W
HStem: 540 10<133.269 166.731> 730 10<133.269 166.731>
VStem: 45 55<576.235 703.765> 200 55<576.235 703.765>
LayerCount: 2
Fore
SplineSet
150 730 m 27
 113 730 100 677 100 640 c 27
 100 603 113 550 150 550 c 27
 187 550 200 603 200 640 c 27
 200 677 187 730 150 730 c 27
45 640 m 3
 45 700 90 740 150 740 c 3
 210 740 255 700 255 640 c 3
 255 580 210 540 150 540 c 3
 90 540 45 580 45 640 c 3
EndSplineSet
Validated: 1
EndChar

StartChar: guillemotright
Encoding: 187 187 117
Width: 570
VWidth: 0
Flags: W
LayerCount: 2
Fore
SplineSet
310 340 m 1
 80 180 l 1
 80 190 l 1
 260 360 l 1
 80 530 l 1
 80 540 l 1
 310 380 l 1
 310 340 l 1
490 340 m 1
 260 180 l 1
 260 190 l 1
 440 360 l 1
 260 530 l 1
 260 540 l 1
 490 380 l 1
 490 340 l 1
EndSplineSet
Validated: 1
EndChar

StartChar: one.superior
Encoding: 185 185 118
Width: 395
VWidth: 0
HStem: 405 19<113 180 255 322>
VStem: 180 75<424 836>
LayerCount: 2
Fore
SplineSet
255 424 m 1
 322 424 l 1
 322 405 l 1
 113 405 l 1
 113 424 l 1
 180 424 l 1
 180 836 l 1
 80 804 l 1
 73 821 l 1
 255 887 l 1
 255 424 l 1
EndSplineSet
Validated: 1
EndChar

StartChar: two.superior
Encoding: 178 178 119
Width: 395
VWidth: 0
HStem: 405 64<100 326> 848 37<123.425 235.246>
VStem: 273 75<663.257 813.855>
LayerCount: 2
Fore
SplineSet
47 776 m 1
 79 844 125 885 194 885 c 3
 269 885 348 839 348 754 c 11
 348 594 165 491 100 469 c 9
 311 469 l 21
 334 469 349 496 362 524 c 13
 368 521 l 1
 326 405 l 17
 33 405 l 1
 33 435 l 17
 68 455 273 572 273 736 c 3
 273 815 230 848 177 848 c 3
 124 848 80 818 53 773 c 1
 47 776 l 1
EndSplineSet
Validated: 1
EndChar

StartChar: three.superior
Encoding: 179 179 120
Width: 406
VWidth: 0
HStem: 390 16<162.795 235.178> 849 38<128.196 238.038>
VStem: 33 75<439.538 527.699> 268 75<702.592 822.467> 291 75<460.152 581.656>
LayerCount: 2
Fore
SplineSet
366 524 m 0xe8
 366 437 264 390 186 390 c 0
 108 390 33 430 33 491 c 0
 33 511 49 532 71 532 c 0
 93 532 106 512 108 492 c 0
 112 446 146 406 200 406 c 0
 254 406 291 452 291 525 c 0xe8
 291 578 257 614 186 637 c 2
 155 647 l 25
 185 657 l 2
 236 674 268 703 268 763 c 0
 268 823 224 849 183 849 c 0
 135 849 83 826 56 780 c 1
 48 783 l 1
 81 852 143 887 199 887 c 3
 269 887 343 847 343 759 c 0xf0
 343 705 284 659 235 647 c 5
 299 631 366 587 366 524 c 0xe8
EndSplineSet
Validated: 1
EndChar

StartChar: ae
Encoding: 230 230 121
Width: 780
VWidth: 0
Flags: W
HStem: -20 20<181.734 240.71 501.458 599.321> 250 10<258.925 350> 265 25<380 640> 455 15<188.058 260.581 513.888 555.112>
VStem: 40 95<33.7494 174.181> 60 90<356.113 431.183> 310 100<80 380> 310 42<74.3633 122> 380 20<265 290> 640 100<290 356.832>
LayerCount: 2
Fore
SplineSet
730 145 m 1xf240
 740 140 l 1
 707.5078125 50.7294921875 649 -20 545 -20 c 0
 435 -20 310 50 310 220 c 0xf240
 310 390 425 470 535 470 c 0
 645 470 740 385 740 265 c 1
 380 265 l 1
 380 290 l 1xf0c0
 640 290 l 1
 637.208007812 369.951171875 609.75 450 535 450 c 0
 455 450 410 380 410 230 c 0
 410 80 465 0 545 0 c 0
 625 0 699.217773438 60.427734375 730 145 c 1xf240
350 260 m 1
 350 250 l 1
 310 250 l 18xfa40
 208 250 135 209 135 109 c 0
 135 29 180 0 215 0 c 0
 265 0 299 46 352 122 c 9
 352 102 l 17
 297 24 260 -20 190 -20 c 0
 110 -20 40 20 40 100 c 0xf940
 40 210 150 260 300 260 c 10
 350 260 l 1
310 60 m 9xf5c0
 310 350 l 18xf240
 310 420 275 455 225 455 c 0
 175 455 156.078125 429.46875 150 395 c 0
 143.921875 360.53125 125 350 105 350 c 0
 85 350 60 360 60 390 c 0
 60 445 145 470 235 470 c 0
 325 470 400 445 400 345 c 10
 400 158 l 17
 310 60 l 9xf5c0
EndSplineSet
Validated: 5
EndChar

StartChar: eth
Encoding: 240 240 122
Width: 560
VWidth: 0
Flags: W
HStem: -20 10<248.496 309.824> 460 10<250.176 311.504> 700 20G<135 275.946 395.556 435>
VStem: 50 100<110.526 331.219> 410 100<118.781 380> 450 60<230 388.726>
LayerCount: 2
Fore
SplineSet
120 540 m 1xf0
 430 720 l 1
 435 710 l 1
 125 530 l 1
 120 540 l 1xf0
140 720 m 1
 411.892336111 593.214521478 510 490 510 230 c 1xf8
 450 230 l 1xf4
 450 450 351.506835938 585 135 710 c 1
 140 720 l 1
150 220 m 0
 150 70 200 -10 280 -10 c 0
 360 -10 410 80 410 230 c 0
 410 380 360 460 280 460 c 0
 200 460 150 370 150 220 c 0
50 220 m 0
 50 390 170 470 280 470 c 0
 390 470 510 400 510 230 c 0
 510 60 390 -20 280 -20 c 0
 170 -20 50 50 50 220 c 0
EndSplineSet
Validated: 5
EndChar

StartChar: multiply
Encoding: 215 215 123
Width: 480
VWidth: 0
Flags: W
LayerCount: 2
Fore
SplineSet
40 130 m 5
 410 510 l 5
 430 490 l 5
 60 110 l 5
 40 130 l 5
50 490 m 5
 70 510 l 5
 440 130 l 5
 420 110 l 5
 50 490 l 5
EndSplineSet
Validated: 5
EndChar

StartChar: questiondown
Encoding: 191 191 125
Width: 580
VWidth: 0
Flags: W
HStem: -220 15<254.719 346.772> 400 120<263.745 356.255>
VStem: 60 100<-104.855 61.5972> 250 120<413.745 506.255> 295 25<209.505 340> 420 100<-122.969 -1.07422>
LayerCount: 2
Fore
SplineSet
420 -50 m 4xec
 420 -20 440 10 470 10 c 31
 498 10 520 -20 520 -50 c 7
 520 -160 405 -220 295 -220 c 7
 185 -220 60 -150 60 -20 c 7
 60 100 179 177 295 213 c 13
 295 340 l 29
 320 340 l 29
 320 193 l 21
 233 153 160 70 160 -20 c 7
 160 -130 215 -205 295 -205 c 7
 395 -205 420 -150 420 -50 c 4xec
370 460 m 28xf4
 370 427 343 400 310 400 c 28
 277 400 250 427 250 460 c 28
 250 493 277 520 310 520 c 28
 343 520 370 493 370 460 c 28xf4
EndSplineSet
Validated: 1
EndChar

StartChar: divide
Encoding: 247 247 127
Width: 540
VWidth: 0
Flags: W
HStem: 50 120<223.745 316.255> 275 20<30 510> 400 120<223.745 316.255>
VStem: 210 120<63.7454 156.255 413.745 506.255>
CounterMasks: 1 e0
LayerCount: 2
Fore
SplineSet
210 110 m 24
 210 143 237 170 270 170 c 24
 303 170 330 143 330 110 c 24
 330 77 303 50 270 50 c 24
 237 50 210 77 210 110 c 24
210 460 m 24
 210 493 237 520 270 520 c 24
 303 520 330 493 330 460 c 24
 330 427 303 400 270 400 c 24
 237 400 210 427 210 460 c 24
30 275 m 1
 30 295 l 5
 510 295 l 5
 510 275 l 1
 30 275 l 1
EndSplineSet
Validated: 1
EndChar

StartChar: thorn
Encoding: 254 254 128
Width: 600
VWidth: 0
Flags: W
HStem: -200 20<10 290> -20 20<265.778 357.073> 450 20<265.778 357.073> 695 10<20 44.0411> 720 20G<95 195>
VStem: 105 90<-200 681.284> 114 25<105.417 344.583> 454 106<118.217 339.515>
LayerCount: 2
Fore
SplineSet
114 225 m 0xfb
 114 395 221 470 331 470 c 0
 441 470 560 400 560 230 c 0
 560 60 441 -20 331 -20 c 0
 221 -20 114 55 114 225 c 0xfb
139 225 m 0
 139 75 211 0 311 0 c 0
 391 0 454 70 454 220 c 0
 454 370 391 450 311 450 c 0
 211 450 139 375 139 225 c 0
10 -180 m 1
 105 -180 l 1
 195 -180 l 1xfd
 290 -180 l 1
 290 -200 l 1
 10 -200 l 1
 10 -180 l 1
195 -200 m 1
 105 -200 l 1
 105 650 l 22
 105 685 54 695 20 695 c 5
 20 705 l 5
 195 740 l 5
 195 -200 l 1
EndSplineSet
Validated: 5
EndChar

StartChar: oslash
Encoding: 248 248 135
Width: 540
VWidth: 0
Flags: W
HStem: -20 20<226.833 315.753> 450 20<224.247 313.167>
VStem: 40 100<119.745 340.961> 400 100<109.039 330.255>
LayerCount: 2
Fore
SplineSet
40 20 m 5
 485 445 l 29
 500 430 l 29
 55 5 l 5
 40 20 l 5
140 230 m 0
 140 80 190 0 270 0 c 0
 350 0 400 70 400 220 c 0
 400 370 350 450 270 450 c 0
 190 450 140 380 140 230 c 0
40 230 m 0
 40 400 160 470 270 470 c 0
 380 470 500 390 500 220 c 0
 500 50 380 -20 270 -20 c 0
 160 -20 40 60 40 230 c 0
EndSplineSet
Validated: 5
EndChar

StartChar: uni02BB
Encoding: 699 699 138
Width: 260
VWidth: 0
Flags: W
VStem: 80 100<533.438 603>
LayerCount: 2
Fore
SplineSet
110 575 m 9
 80 575 l 17
 80 645 130.850585938 705.584960938 180 740 c 9
 183 735 l 17
 144.698242188 702.860351562 115.229492188 634.771484375 110 575 c 9
180 575 m 24
 180 547 158 525 130 525 c 24
 102 525 80 547 80 575 c 24
 80 603 102 625 130 625 c 24
 158 625 180 603 180 575 c 24
EndSplineSet
Validated: 5
EndChar

StartChar: uni02BC
Encoding: 700 700 139
Width: 260
VWidth: 0
Flags: W
VStem: 80 100<662 731.562>
LayerCount: 2
Fore
SplineSet
150 690 m 9
 180 690 l 17
 180 620 129.149414062 559.415039062 80 525 c 9
 77 530 l 17
 115.301757812 562.139648438 144.770507812 630.228515625 150 690 c 9
80 690 m 24
 80 718 102 740 130 740 c 24
 158 740 180 718 180 690 c 24
 180 662 158 640 130 640 c 24
 102 640 80 662 80 690 c 24
EndSplineSet
Validated: 5
EndChar

StartChar: uni02BD
Encoding: 701 701 140
Width: 260
VWidth: 0
Flags: W
HStem: 640 100<131 171.221>
VStem: 80 100<648.877 731.562>
LayerCount: 2
Fore
SplineSet
110 690 m 9
 80 690 l 17
 80 620 130.850585938 559.415039062 180 525 c 9
 183 530 l 17
 144.698242188 562.139648438 115.229492188 630.228515625 110 690 c 9
180 690 m 24
 180 718 158 740 130 740 c 24
 102 740 80 718 80 690 c 24
 80 662 102 640 130 640 c 24
 158 640 180 662 180 690 c 24
EndSplineSet
Validated: 5
EndChar

StartChar: circumflex
Encoding: 710 710 141
Width: 280
VWidth: 0
Flags: W
HStem: 600 150
VStem: 10 260
LayerCount: 2
Fore
SplineSet
10 600 m 1
 110 750 l 1
 170 750 l 5
 270 600 l 1
 240 600 l 1
 140 691 l 1
 40 600 l 1
 10 600 l 1
EndSplineSet
Validated: 1
EndChar

StartChar: caron
Encoding: 711 711 142
Width: 280
VWidth: 0
Flags: W
HStem: 600 150
VStem: 10 260
LayerCount: 2
Fore
SplineSet
10 750 m 1
 40 750 l 1
 140 659 l 1
 240 750 l 1
 270 750 l 1
 170 600 l 1
 110 600 l 1
 10 750 l 1
EndSplineSet
Validated: 1
EndChar

StartChar: uni02CA
Encoding: 714 714 143
Width: 160
VWidth: 0
Flags: W
HStem: 515 215
VStem: 18 124
LayerCount: 2
Fore
SplineSet
142 695 m 0
 142 646 98.1125843037 592.978374951 76 570 c 2
 23 515 l 1
 18 519 l 1
 30 591 l 2
 33 611 46 656 58 683 c 0
 69 706 88 730 110 730 c 0
 132 730 142 713 142 695 c 0
EndSplineSet
Validated: 1
EndChar

StartChar: uni02CB
Encoding: 715 715 144
Width: 160
VWidth: 0
Flags: W
HStem: 515 215
VStem: 18 124
LayerCount: 2
Fore
SplineSet
18 695 m 0
 18 713 28 730 50 730 c 0
 72 730 91 706 102 683 c 0
 114 656 127 611 130 591 c 2
 142 519 l 1
 138 515 l 1
 84 570 l 2
 61.6480035615 592.745556824 18 646 18 695 c 0
EndSplineSet
Validated: 1
EndChar

StartChar: breve
Encoding: 728 728 145
Width: 340
VWidth: 0
Flags: W
HStem: 570 70<114.825 225.39>
VStem: 40 260
LayerCount: 2
Fore
SplineSet
40 730 m 9
 45 735 l 1
 90 657.057713659 130 640 170 640 c 3
 210 640 251 657.057713659 296 735 c 1
 300 730 l 17
 262.377784234 626.633811714 230 570 170 570 c 7
 110 570 77.6222157658 626.633811714 40 730 c 9
EndSplineSet
Validated: 1
EndChar

StartChar: dotaccent
Encoding: 729 729 146
Width: 300
VWidth: 0
Flags: W
HStem: 620 120<103.745 196.255>
VStem: 90 120<633.745 726.255>
LayerCount: 2
Fore
SplineSet
90 680 m 24
 90 713 117 740 150 740 c 24
 183 740 210 713 210 680 c 24
 210 647 183 620 150 620 c 24
 117 620 90 647 90 680 c 24
EndSplineSet
Validated: 1
EndChar

StartChar: ring
Encoding: 730 730 147
Width: 300
VWidth: 0
Flags: W
HStem: 600 30<119.334 180.666> 710 30<119.334 180.666>
VStem: 80 30<639.334 700.666> 190 30<639.334 700.666>
LayerCount: 2
Fore
SplineSet
150 710 m 27
 128 710 110 692 110 670 c 27
 110 648 128 630 150 630 c 27
 172 630 190 648 190 670 c 27
 190 692 172 710 150 710 c 27
80 670 m 27
 80 709 111 740 150 740 c 27
 189 740 220 709 220 670 c 27
 220 631 189 600 150 600 c 27
 111 600 80 631 80 670 c 27
EndSplineSet
Validated: 1
EndChar

StartChar: ogonek
Encoding: 731 731 148
Width: 290
Flags: W
HStem: -210 45<125.332 202.903> -20 20G<127.525 175>
VStem: 50 60<-150.44 -63.0778>
LayerCount: 2
Fore
SplineSet
50 -120 m 0
 50 -75 90.0498046875 -27.279296875 165 0 c 1
 175 0 l 1
 121.376953125 -44.9951171875 110 -70 110 -100 c 0
 110 -150 150 -165 170 -165 c 0
 200 -165 219.678710938 -152.85546875 235 -140 c 1
 240 -145 l 1
 225 -170.98046875 190 -210 150 -210 c 0
 90 -210 50 -180 50 -120 c 0
EndSplineSet
Validated: 1
EndChar

StartChar: tilde
Encoding: 732 732 149
Width: 440
VWidth: 0
Flags: W
HStem: 595 80<235.156 330.336> 660 80<113.03 204.844> 695 20G<367.5 380>
VStem: 65 315
LayerCount: 2
Fore
SplineSet
70 610 m 9x50
 65 620 l 17
 82.012081929 666.740310958 110 740 150 740 c 3x50
 210 740 230 675 290 675 c 3
 320 675 360 689.019237886 375 715 c 13
 380 705 l 17
 362.98828125 658.259765625 330 595 290 595 c 3xb0
 230 595 210 660 150 660 c 3
 120 660 102.139648438 648.301757812 70 610 c 9x50
EndSplineSet
Validated: 1
EndChar

StartChar: uni030B
Encoding: 779 779 150
Width: 290
VWidth: 0
Flags: W
HStem: 515 215
VStem: 18 254
LayerCount: 2
Fore
SplineSet
272 695 m 0
 272 646 228.112304688 592.978515625 206 570 c 2
 153 515 l 1
 148 519 l 1
 160 591 l 2
 163 611 176 656 188 683 c 0
 199 706 218 730 240 730 c 0
 262 730 272 713 272 695 c 0
142 695 m 0
 142 646 98.1125843037 592.978374951 76 570 c 2
 23 515 l 1
 18 519 l 1
 30 591 l 2
 33 611 46 656 58 683 c 0
 69 706 88 730 110 730 c 0
 132 730 142 713 142 695 c 0
EndSplineSet
Validated: 1
EndChar

StartChar: uni030F
Encoding: 783 783 151
Width: 290
VWidth: 0
Flags: W
HStem: 515 215
VStem: 18 254
LayerCount: 2
Fore
SplineSet
148 695 m 0
 148 713 158 730 180 730 c 0
 202 730 221 706 232 683 c 0
 244 656 257 611 260 591 c 2
 272 519 l 1
 268 515 l 1
 214 570 l 2
 191.6484375 592.745117188 148 646 148 695 c 0
18 695 m 0
 18 713 28 730 50 730 c 0
 72 730 91 706 102 683 c 0
 114 656 127 611 130 591 c 2
 142 519 l 1
 138 515 l 1
 84 570 l 2
 61.6480035615 592.745556824 18 646 18 695 c 0
EndSplineSet
Validated: 1
EndChar

StartChar: Oslash
Encoding: 216 216 199
Width: 780
VWidth: 0
Flags: W
HStem: -20 20<329.236 450.764> 690 30<311.125 468.875>
VStem: 50 110<203.455 495.849> 620 110<203.455 495.849>
LayerCount: 2
Fore
SplineSet
160 350 m 0
 160 110 260 1.59198835892e-14 390 0 c 0
 520 -1.59198835892e-14 620 110 620 350 c 0
 620 590 520 690 390 690 c 0
 260 690 160 590 160 350 c 0
50 350 m 0
 50 600 200 720 390 720 c 0
 580 720 730 600 730 350 c 0
 730 100 580 -20 390 -20 c 0
 200 -20 50 100 50 350 c 0
45 25 m 1
 715 685 l 25
 735 665 l 25
 65 5 l 1
 45 25 l 1
EndSplineSet
EndChar

StartChar: AE
Encoding: 198 198 200
Width: 860
VWidth: 0
Flags: W
HStem: 0 25<-10 61 100 191 253 715 779 780> 305 30<186 369> 335 30<429 670> 675 25<210 760>
VStem: 333 96<25 305 365 635> 333 36<305 335> 333 20<635 700> 656 15<190 254.937 445.063 510> 746 15<530 594.937> 765 15<105.063 170>
LayerCount: 2
Fore
SplineSet
606 335 m 1xb1c0
 670 360 l 25
 671 190 l 1
 656 190 l 1
 652 247 641 335 606 335 c 1xb1c0
606 365 m 1
 641 365 652 453 656 510 c 1
 671 510 l 1
 670 340 l 25
 606 365 l 1
696 675 m 1
 760 700 l 25
 761 530 l 1
 746 530 l 1
 742 587 731 675 696 675 c 1
715 25 m 1
 750 25 761 113 765 170 c 1
 780 170 l 1
 779 0 l 25
 715 25 l 1
512 680 m 1
 429 675 l 1x99c0
 333 675 l 1x93c0
 210 675 l 1
 210 700 l 1
 512 700 l 1
 512 680 l 1
253 25 m 1
 333 25 l 1
 429 25 l 1
 512 25 l 1
 512 0 l 1
 253 0 l 1
 253 25 l 1
333 0 m 1xb3c0
 333 700 l 1xb3c0
 429 700 l 1
 429 365 l 1
 670 365 l 1
 670 335 l 1
 429 335 l 1
 429 25 l 1xb9c0
 780 25 l 1
 780 0 l 1
 333 0 l 1xb3c0
210 680 m 1
 210 700 l 1
 760 700 l 1
 760 675 l 1
 512 675 l 1
 400 675 l 1
 210 680 l 1
333 635 m 1x99c0
 100 25 l 1
 191 25 l 1
 191 0 l 1
 -10 0 l 1
 -10 25 l 1
 61 25 l 25
 323 700 l 1
 353 700 l 9
 353 0 l 1
 333 0 l 25x93c0
 333 635 l 1x99c0
186 305 m 5xd5c0
 186 335 l 5
 369 335 l 25
 369 305 l 25
 186 305 l 5xd5c0
EndSplineSet
EndChar

StartChar: Dcroat
Encoding: 272 272 255
Width: 740
VWidth: 0
Flags: W
HStem: 0 25<20 120 220 400.692> 335 30<0 340> 675 25<20 120 220 400.692>
VStem: 120 100<25 675> 600 100<221.026 478.974>
CounterMasks: 1 e0
LayerCount: 2
Fore
SplineSet
20 675 m 5
 20 700 l 1
 350 700 l 2
 510 700 700 590 700 350 c 0
 700 110 510 0 350 0 c 2
 20 0 l 1
 20 25 l 1
 120 25 l 9
 120 675 l 17
 20 675 l 5
220 25 m 1
 330 25 l 2
 470 25 600 150 600 350 c 0
 600 550 470 675 330 675 c 2
 220 675 l 1
 220 25 l 1
0 365 m 1
 340 365 l 25
 340 335 l 25
 0 335 l 1
 0 365 l 1
EndSplineSet
EndChar

StartChar: germandbls
Encoding: 223 223 256
Width: 620
VWidth: 0
Flags: W
HStem: -20 20<301.693 392.249> 0 20<35 200> 399 10<260 397> 705 15<280.87 355.979>
VStem: 110 90<0 610.396> 220 15<84.625 140> 420 80<501.861 638.178> 460 100<75.4816 256.777>
LayerCount: 2
Fore
SplineSet
260 409 m 17xbd
 413 409 560 309 560 169 c 3
 560 49 480 -20 360 -20 c 3
 240 -20 220 68 220 140 c 9
 235 140 l 17
 235 40 289 0 349 0 c 3
 429 0 460 79 460 179 c 3
 460 299 397 399 260 399 c 9
 260 409 l 17xbd
35 20 m 1x7c
 110 20 l 1
 200 20 l 1
 200 0 l 1
 35 0 l 1
 35 20 l 1x7c
420 580 m 1x7e
 420 640 390 705 320 705 c 0
 230 705 200 613 200 500 c 10
 200 0 l 25
 110 0 l 1
 110 500 l 2
 110 647.994140625 200 720 310 720 c 0
 405 720 500 660 500 570 c 3
 500 470 380 399 260 399 c 1
 260 409 l 1
 360 409 420 511 420 580 c 1x7e
EndSplineSet
EndChar

StartChar: kgreenlandic
Encoding: 312 312 257
Width: 578
VWidth: 0
Flags: W
HStem: 0 20<10 290> 0 10<340 377.002 533.078 568> 425 10<20 44.0411> 440 10<310 372.582 470.461 508> 450 20G<95 195>
VStem: 105 90<0 411.284>
LayerCount: 2
Fore
SplineSet
10 20 m 1xa4
 290 20 l 1
 290 0 l 1
 10 0 l 1
 10 20 l 1xa4
195 0 m 1
 105 0 l 1
 105 380 l 22
 105 415 54 425 20 425 c 5
 20 435 l 5
 195 470 l 5xac
 195 0 l 1
310 450 m 1x74
 508 450 l 1
 508 440 l 1
 477 440 445 430 423 410 c 10
 265 270 l 1
 485 45 l 18
 507 22 532 10 568 10 c 1
 568 0 l 1
 340 0 l 1
 340 10 l 1
 381 10 403 22 385 40 c 10
 198 236 l 1
 394 410 l 18
 415 429 375 440 310 440 c 1
 310 450 l 1x74
EndSplineSet
EndChar

StartChar: Thorn
Encoding: 222 222 262
Width: 590
VWidth: 0
Flags: W
HStem: 0 20<20 100 200 280> 190 30<200 358.462> 531 29<100 343.68> 680 20<20 100 200 280>
VStem: 100 100<20 190 220 530 560 680> 440 100<296.274 458.135>
LayerCount: 2
Fore
SplineSet
100 680 m 1
 20 680 l 1
 20 700 l 1
 280 700 l 1
 280 680 l 1
 200 680 l 9
 200 531 l 29
 100 531 l 29
 100 680 l 1
200 190 m 5
 200 20 l 1
 280 20 l 1
 280 0 l 1
 20 0 l 1
 20 20 l 1
 100 20 l 1
 100 560 l 5
 310 560 l 6
 410 560 540 515 540 375 c 4
 540 235 410 190 310 190 c 6
 200 190 l 5
200 220 m 5
 306 220 l 6
 376 220 440 290 440 380 c 4
 440 470 372 530 272 530 c 6
 200 530 l 5
 200 220 l 5
EndSplineSet
EndChar

StartChar: oe
Encoding: 339 339 273
Width: 870
VWidth: 0
Flags: W
HStem: -20 20<226.833 315.753 591.458 689.321> 265 25<470 730> 450 20<224.247 313.167 579.648 665.139>
VStem: 40 100<119.745 340.961> 400 100<50 390> 470 30<265 290> 730 100<290 356.832>
LayerCount: 2
Fore
SplineSet
820 145 m 1xfa
 830 140 l 1
 797.5078125 50.7294921875 739 -20 635 -20 c 0
 525 -20 400 50 400 220 c 0xfa
 400 390 515 470 625 470 c 0
 735 470 830 385 830 265 c 1
 470 265 l 1
 470 290 l 1xf6
 730 290 l 1
 727.208007812 369.951171875 699.75 450 625 450 c 0
 545 450 500 380 500 230 c 0
 500 80 555 0 635 0 c 0
 715 0 789.217773438 60.427734375 820 145 c 1xfa
140 230 m 0
 140 80 190 0 270 0 c 0
 350 0 400 70 400 220 c 0
 400 370 350 450 270 450 c 0
 190 450 140 380 140 230 c 0
40 230 m 0
 40 400 160 470 270 470 c 0
 380 470 500 390 500 220 c 0
 500 50 380 -20 270 -20 c 0
 160 -20 40 60 40 230 c 0
EndSplineSet
EndChar

StartChar: Scedilla
Encoding: 350 350 274
Width: 560
VWidth: 0
HStem: -223 10<217.2 236.572> -20 25<195.393 283 292 324.876> 0 21G<60 72.5> 680 20G<450 461> 690 30<217.87 353.534>
VStem: 60 20<107.783 165> 60 9<0 13.5613> 69 90<503.567 629.237> 310 90<-173.07 -87.0856> 420 90<82.8455 234.243> 441 20<540 602.117> 451 10<680.846 700>
LayerCount: 2
Fore
SplineSet
216 -213 m 1xc9c0
 295 -199 310 -158 310 -133 c 0
 310 -108 290 -78 260 -73 c 1
 283 -20 l 1xc9c0
 217 -19 141 -3 97 51 c 1
 83 39 76 24 69 0 c 1
 60 0 l 1xa2c0
 60 165 l 1
 80 165 l 1xa480
 80 25 210 5 270 5 c 0
 350 5 420 70 420 150 c 0
 420 220 397 276 275 320 c 0
 125 375 69 450 69 550 c 0
 69 640 149 720 259 720 c 0xc9c0
 317 720 385 707 425 658 c 1
 439 667 449 678 451 700 c 1
 461 700 l 1x9190
 461 540 l 1
 441 540 l 1x90a0
 441 670 345 690 280 690 c 0
 200 690 159 635 159 570 c 0
 159 515 190 471 275 440 c 0
 416 389 510 330 510 170 c 0
 510 51 411 -19 292 -20 c 1
 286 -43 l 1
 345 -53 400 -73 400 -123 c 0
 400 -183 348 -200 220 -223 c 1
 216 -213 l 1xc9c0
EndSplineSet
EndChar

StartChar: scedilla
Encoding: 351 351 275
Width: 410
VWidth: 0
HStem: -223 10<131.8 147.778> -20 15<149.744 198 207 225.565> 0 21G<40 51> 431 20G<329 340> 455 15<169.933 250.992>
VStem: 40 15<97.3988 130> 40 9<0 17.9615> 50 70<314.583 411.542> 226 90<-173.07 -87.0856> 300 70<44.7057 154.914> 326 14<340 366.991> 331 9<434.195 451>
LayerCount: 2
Fore
SplineSet
130 -213 m 1xf880
 209 -199 226 -158 226 -133 c 0
 226 -108 206 -78 176 -73 c 1
 198 -20 l 1
 140 -18 96 2 68 48 c 1
 58 34 53 20 49 0 c 1
 40 0 l 1xfa80
 40 130 l 1
 55 130 l 1
 74 22 125 -5 185 -5 c 0
 245 -5 300 42 300 100 c 0xfc40
 300 147 273 173 195 190 c 0
 107 209 50 260 50 340 c 0
 50 420 115 470 195 470 c 0
 250 470 289 455 314 414 c 1
 324 423 327 434 331 451 c 1
 340 451 l 1xf910
 340 340 l 1
 326 340 l 1xf820
 310 429 265 455 205 455 c 0
 150 455 120 410 120 360 c 0
 120 330 137 306 195 290 c 0
 292 264 370 220 370 120 c 0xf940
 370 21 286 -19 207 -20 c 1
 200 -43 l 1
 259 -53 316 -73 316 -123 c 0
 316 -183 264 -200 136 -223 c 1
 130 -213 l 1xf880
EndSplineSet
EndChar

StartChar: uni0162
Encoding: 354 354 276
Width: 680
VWidth: 0
Flags: W
HStem: -203 10<262 277.28> 0 25<180 285 385 490> 675 25<108.774 285 385 561.226>
VStem: 0 15<510 530.31> 285 100<25 675> 355.5 90<-153.141 -67.5759> 655 15<510 530.31>
LayerCount: 2
Fore
SplineSet
260.5 -193 m 1xf6
 339.284179688 -179.108398438 355.5 -138 355.5 -113 c 0xf6
 355.5 -88 335.043945312 -58.208984375 305.5 -53 c 1
 327.583333333 -8.881784197e-16 l 1
 285 0 l 1
 180 0 l 1
 180 25 l 1
 285 25 l 1
 285 675 l 1
 160 675 l 2
 88 675 47 622 15 510 c 1
 0 510 l 1
 30 700 l 1
 640 700 l 1
 670 510 l 1
 655 510 l 1
 623 622 582 675 510 675 c 2
 385 675 l 1
 385 25 l 1
 490 25 l 1
 490 0 l 1
 385 0 l 1xfa
 337.4 -5.55111512313e-17 l 1
 330.5 -23 l 1
 389.676757812 -32.9033203125 445.5 -53 445.5 -103 c 0
 445.5 -163 393.525390625 -180.42578125 265.5 -203 c 1
 260.5 -193 l 1xf6
EndSplineSet
EndChar

StartChar: uni0163
Encoding: 355 355 277
Width: 330
VWidth: 0
HStem: -223 10<162 177.28> -19.8854 19.8854<223.642 227.631 237.406 282.821> 430 20<180 320> 430 10<10 23.1664>
VStem: 90 90<45.9042 430> 170 10<589.68 610> 255.5 90<-173.141 -87.5759>
LayerCount: 2
Fore
SplineSet
160.5 -213 m 1xea
 239.284179688 -199.108398438 255.5 -158 255.5 -133 c 0
 255.5 -108 235.043945312 -78.208984375 205.5 -73 c 1
 227.631083375 -19.8853999 l 1
 142.006981221 -17.1877297801 90 33.3107834238 90 150 c 2
 90 430 l 1
 10 430 l 1
 10 440 l 1xda
 106 473 151 520 170 610 c 1
 180 610 l 1
 180 450 l 1xe6
 320 450 l 1
 320 430 l 1
 180 430 l 1
 180 150 l 2
 180 40 210 0 255 0 c 0
 280 0 300.123046875 12.5166015625 315 25 c 1
 320 20 l 1
 307.210386477 4.2589372023 285.709720133 -19.2252836579 237.405616524 -19.981278252 c 1
 230.5 -43 l 1
 289.676757812 -52.9033203125 345.5 -73 345.5 -123 c 0
 345.5 -183 293.525390625 -200.42578125 165.5 -223 c 1
 160.5 -213 l 1xea
EndSplineSet
EndChar

StartChar: Eth
Encoding: 208 208 281
Width: 780
VWidth: 0
Flags: W
HStem: 0 25<50 150 250 430.692> 335 30<30 370> 675 25<50 150 250 430.692>
VStem: 150 100<25 675> 630 100<221.026 478.974>
CounterMasks: 1 e0
LayerCount: 2
Fore
SplineSet
50 675 m 5
 50 700 l 1
 380 700 l 2
 540 700 730 590 730 350 c 0
 730 110 540 0 380 0 c 2
 50 0 l 1
 50 25 l 1
 150 25 l 9
 150 675 l 17
 50 675 l 5
250 25 m 1
 360 25 l 2
 500 25 630 150 630 350 c 0
 630 550 500 675 360 675 c 2
 250 675 l 1
 250 25 l 1
30 365 m 1
 370 365 l 25
 370 335 l 25
 30 335 l 1
 30 365 l 1
EndSplineSet
EndChar

StartChar: longs
Encoding: 383 383 317
Width: 370
VWidth: 0
Flags: W
HStem: 0 20<35 110 200 295> 745 15<274.773 348.009>
VStem: 110 90<20 656.604> 390 90<623.02 715.118>
LayerCount: 2
Fore
SplineSet
295 0 m 1
 35 0 l 1
 35 20 l 1
 110 20 l 1
 110 540 l 2
 110 687.994140625 185 760 295 760 c 0
 390 760 480 735 480 665 c 0
 480 635 455 615 435 615 c 0
 415 615 390 625 390 665 c 0
 390 725 355 745 305 745 c 0
 235 745 200 653 200 540 c 2
 200 20 l 1
 295 20 l 1
 295 0 l 1
EndSplineSet
EndChar

StartChar: cent
Encoding: 162 162 318
Width: 510
VWidth: 0
Flags: W
HStem: -20 20<233.221 323.162> 450 20<229 314.067>
VStem: 40 100<110.485 329.219> 380 90<293.009 393.065>
LayerCount: 2
Fore
SplineSet
165 -130 m 25
 350 590 l 25
 385 590 l 25
 200 -130 l 29
 165 -130 l 25
450 151 m 1
 470 140 l 1
 437.5078125 50.7294921875 375 -20 275 -20 c 0
 166 -20 40 50 40 220 c 0
 40 390 166 470 275 470 c 0
 365 470 470 420 470 330 c 0
 470 300 445 285 425 285 c 0
 405 285 380 303 380 340 c 0
 380 430 330 450 275 450 c 0
 195 450 140 380 140 230 c 0
 140 80 195 0 275 0 c 0
 350 0 419.217773438 66.427734375 450 151 c 1
EndSplineSet
EndChar

StartChar: exclamdown
Encoding: 161 161 319
Width: 300
VWidth: 0
Flags: W
HStem: 450 120<103.745 196.255>
VStem: 90 120<-171.128 155.11 463.745 556.255>
LayerCount: 2
Fore
SplineSet
90 510 m 28
 90 543 117 570 150 570 c 28
 183 570 210 543 210 510 c 28
 210 477 183 450 150 450 c 28
 117 450 90 477 90 510 c 28
145 390 m 5
 155 390 l 5
 174.173828125 170.836914062 210 117 210 -60 c 28
 210 -116 206 -190 150 -190 c 28
 94 -190 90 -116 90 -60 c 28
 90 117 125.826171875 170.836914062 145 390 c 5
EndSplineSet
EndChar

StartChar: OE
Encoding: 338 338 321
Width: 1020
VWidth: 0
Flags: W
HStem: -20 20<327.609 451.834> 0 25<620 905 969 970> 335 30<620 860> 675 25<577 950> 690 30<311.125 469.553>
VStem: 50 110<203.455 495.849> 520 100<37 335 365 654 675 680> 549.304 40.6581<79 384.175> 560.171 42.2309<306.825 601> 846 15<190 254.937 445.063 510> 936 15<530 594.937> 955 15<105.063 170>
LayerCount: 2
Fore
SplineSet
796 335 m 1x2470
 860 360 l 25
 861 190 l 1
 846 190 l 1
 842 247 831 335 796 335 c 1x2470
796 365 m 1
 831 365 842 453 846 510 c 1
 861 510 l 1
 860 340 l 25
 796 365 l 1
886 675 m 1x3470
 950 700 l 25
 951 530 l 1
 936 530 l 1
 932 587 921 675 886 675 c 1x3470
905 25 m 1x6470
 940 25 951 113 955 170 c 1
 970 170 l 1
 969 0 l 25
 905 25 l 1x6470
520 0 m 1x7670
 520 700 l 1
 620 700 l 1
 620 365 l 1
 860 365 l 1
 860 335 l 1
 620 335 l 1
 620 25 l 1
 970 25 l 1
 970 0 l 1
 520 0 l 1x7670
520 680 m 1
 520 700 l 1
 950 700 l 1
 950 675 l 1
 700 675 l 1
 577 675 l 1
 520 680 l 1
560.171487614 601.000003326 m 1xacf0
 518.574875986 662.279340039 458.445536987 690 390 690 c 0
 260 690 160 590 160 350 c 0
 160 110 260 1.59198835892e-14 390 0 c 0
 452.696584618 0 508.41530819 25.5854905033 549.303821001 79 c 1xad70
 560.171487614 601.000003326 l 1xacf0
589.961947126 36.9999857551 m 1
 534.117471964 -1.20659746197 465.190969738 -20 390 -20 c 0
 200 -20 50 100 50 350 c 0
 50 600 200 720 390 720 c 0
 470.876402044 720 544.505167072 698.25708895 602.402359744 654 c 1xacf0
 589.961947126 36.9999857551 l 1
EndSplineSet
EndChar

StartChar: dcroat
Encoding: 273 273 323
Width: 590
VWidth: 0
Flags: W
HStem: -20 20<234.166 325.481> 15 10<555.959 580> 450 20<234.166 325.481> 580 20<290 570> 695 10<320 344.041> 720 20G<395 495>
VStem: 40 100<105.221 337.203> 405 90<38.716 681.284> 455 25<65 385>
LayerCount: 2
Fore
SplineSet
495 70 m 18xff
 495 35 546 25 580 25 c 1
 580 15 l 1
 405 -20 l 1
 405 650 l 18
 405 685 354 695 320 695 c 1
 320 705 l 1
 495 740 l 1
 495 70 l 18xff
455 225 m 0xfe80
 455 375 380 450 280 450 c 0
 200 450 140 380 140 230 c 0
 140 80 200 0 280 0 c 0
 380 0 455 75 455 225 c 0xfe80
480 225 m 0
 480 55 370 -20 260 -20 c 0
 150 -20 40 50 40 220 c 0
 40 390 150 470 260 470 c 0
 370 470 480 395 480 225 c 0
290 600 m 1
 570 600 l 25
 570 580 l 25
 290 580 l 1
 290 600 l 1
EndSplineSet
EndChar

StartChar: quoteright
Encoding: 8217 8217 324
Width: 260
VWidth: 0
Flags: W
VStem: 80 100<662 731.562>
LayerCount: 2
Fore
SplineSet
150 690 m 9
 180 690 l 17
 180 620 129.149414062 559.415039062 80 525 c 9
 77 530 l 17
 115.301757812 562.139648438 144.770507812 630.228515625 150 690 c 9
80 690 m 24
 80 718 102 740 130 740 c 24
 158 740 180 718 180 690 c 24
 180 662 158 640 130 640 c 24
 102 640 80 662 80 690 c 24
EndSplineSet
EndChar

StartChar: quoteleft
Encoding: 8216 8216 325
Width: 260
VWidth: 0
Flags: W
VStem: 80 100<533.438 603>
LayerCount: 2
Fore
SplineSet
110 575 m 9
 80 575 l 17
 80 645 130.850585938 705.584960938 180 740 c 9
 183 735 l 17
 144.698242188 702.860351562 115.229492188 634.771484375 110 575 c 9
180 575 m 24
 180 547 158 525 130 525 c 24
 102 525 80 547 80 575 c 24
 80 603 102 625 130 625 c 24
 158 625 180 603 180 575 c 24
EndSplineSet
EndChar

StartChar: florin
Encoding: 402 402 326
Width: 567
VWidth: 0
Flags: W
HStem: -220 20<80.9285 140.929> 420 30<380.198 524.909> 420 20<198.436 284.451> 745 15<505.166 578.941>
VStem: -25 87.3184<-178.671 -75.5514> 606.818 92.4805<629.549 723.69>
LayerCount: 2
Fore
SplineSet
606.818359375 651.358398438 m 0xdc
 606.818359375 661.96875 610.154296875 676.418945312 610.154296875 686.498046875 c 0
 610.154296875 729.880859375 580.6875 745 537.21484375 745 c 0
 467.21484375 745 415.993164062 653 396.068359375 540 c 2
 380.198242188 450 l 1
 530.198242188 450 l 1
 524.909179688 420 l 1xdc
 374.909179688 420 l 1
 300.8515625 0 l 2
 274.754882812 -148 227.059570312 -220 117.059570312 -220 c 0
 30.158203125 -220 -25 -182.345703125 -25 -126.172851562 c 0
 -25 -81.1796875 4.4853515625 -65 29.390625 -65 c 0
 46.6357421875 -65 66.287109375 -72.4345703125 66.287109375 -103.331054688 c 0
 66.287109375 -115.581054688 62.318359375 -133.268554688 62.318359375 -144.862304688 c 0
 62.318359375 -185.666015625 85.1884765625 -200 110.5859375 -200 c 0
 160.5859375 -200 186.166015625 -140 210.8515625 0 c 2
 284.909179688 420 l 1
 194.909179688 420 l 1
 198.435546875 440 l 1xbc
 248.435546875 440 269.96484375 443 290.198242188 450 c 1
 306.068359375 540 l 2
 332.1640625 688 419.860351562 760 529.860351562 760 c 0
 618.692382812 760 699.298828125 738.140625 699.298828125 678.069335938 c 0
 699.298828125 640.770507812 668.052734375 615 644.29296875 615 c 0
 626.794921875 615 606.818359375 622.654296875 606.818359375 651.358398438 c 0xdc
EndSplineSet
EndChar
